<?xml version="1.0" encoding="utf-8" standalone="no"?>
<!DOCTYPE svg PUBLIC "-//W3C//DTD SVG 1.1//EN"
  "http://www.w3.org/Graphics/SVG/1.1/DTD/svg11.dtd">
<!-- Created with matplotlib (https://matplotlib.org/) -->
<svg height="345.6pt" version="1.1" viewBox="0 0 460.8 345.6" width="460.8pt" xmlns="http://www.w3.org/2000/svg" xmlns:xlink="http://www.w3.org/1999/xlink">
 <defs>
  <style type="text/css">
*{stroke-linecap:butt;stroke-linejoin:round;}
  </style>
 </defs>
 <g id="figure_1">
  <g id="patch_1">
   <path d="M 0 345.6 
L 460.8 345.6 
L 460.8 0 
L 0 0 
z
" style="fill:#ffffff;"/>
  </g>
  <g id="axes_1">
   <g id="patch_2">
    <path d="M 57.6 307.584 
L 414.72 307.584 
L 414.72 41.472 
L 57.6 41.472 
z
" style="fill:#ffffff;"/>
   </g>
   <g id="patch_3">
    <path clip-path="url(#pc8859f549d)" d="M 73.832727 307.584 
L 79.705032 307.584 
L 79.705032 298.49681 
L 73.832727 298.49681 
z
" style="fill:#1f77b4;"/>
   </g>
   <g id="patch_4">
    <path clip-path="url(#pc8859f549d)" d="M 90.61074 307.584 
L 96.483044 307.584 
L 96.483044 279.424584 
L 90.61074 279.424584 
z
" style="fill:#1f77b4;"/>
   </g>
   <g id="patch_5">
    <path clip-path="url(#pc8859f549d)" d="M 107.388753 307.584 
L 113.261057 307.584 
L 113.261057 278.568472 
L 107.388753 278.568472 
z
" style="fill:#1f77b4;"/>
   </g>
   <g id="patch_6">
    <path clip-path="url(#pc8859f549d)" d="M 124.166765 307.584 
L 130.03907 307.584 
L 130.03907 277.711212 
L 124.166765 277.711212 
z
" style="fill:#1f77b4;"/>
   </g>
   <g id="patch_7">
    <path clip-path="url(#pc8859f549d)" d="M 140.944778 307.584 
L 146.817082 307.584 
L 146.817082 276.896734 
L 140.944778 276.896734 
z
" style="fill:#1f77b4;"/>
   </g>
   <g id="patch_8">
    <path clip-path="url(#pc8859f549d)" d="M 157.722791 307.584 
L 163.595095 307.584 
L 163.595095 276.126652 
L 157.722791 276.126652 
z
" style="fill:#1f77b4;"/>
   </g>
   <g id="patch_9">
    <path clip-path="url(#pc8859f549d)" d="M 174.500803 307.584 
L 180.373108 307.584 
L 180.373108 275.389028 
L 174.500803 275.389028 
z
" style="fill:#1f77b4;"/>
   </g>
   <g id="patch_10">
    <path clip-path="url(#pc8859f549d)" d="M 191.278816 307.584 
L 197.151121 307.584 
L 197.151121 274.676011 
L 191.278816 274.676011 
z
" style="fill:#1f77b4;"/>
   </g>
   <g id="patch_11">
    <path clip-path="url(#pc8859f549d)" d="M 208.056829 307.584 
L 213.929133 307.584 
L 213.929133 273.986124 
L 208.056829 273.986124 
z
" style="fill:#1f77b4;"/>
   </g>
   <g id="patch_12">
    <path clip-path="url(#pc8859f549d)" d="M 224.834841 307.584 
L 230.707146 307.584 
L 230.707146 273.31638 
L 224.834841 273.31638 
z
" style="fill:#1f77b4;"/>
   </g>
   <g id="patch_13">
    <path clip-path="url(#pc8859f549d)" d="M 241.612854 307.584 
L 247.485159 307.584 
L 247.485159 272.672786 
L 241.612854 272.672786 
z
" style="fill:#1f77b4;"/>
   </g>
   <g id="patch_14">
    <path clip-path="url(#pc8859f549d)" d="M 258.390867 307.584 
L 264.263171 307.584 
L 264.263171 272.067949 
L 258.390867 272.067949 
z
" style="fill:#1f77b4;"/>
   </g>
   <g id="patch_15">
    <path clip-path="url(#pc8859f549d)" d="M 275.168879 307.584 
L 281.041184 307.584 
L 281.041184 271.516197 
L 275.168879 271.516197 
z
" style="fill:#1f77b4;"/>
   </g>
   <g id="patch_16">
    <path clip-path="url(#pc8859f549d)" d="M 291.946892 307.584 
L 297.819197 307.584 
L 297.819197 270.982028 
L 291.946892 270.982028 
z
" style="fill:#1f77b4;"/>
   </g>
   <g id="patch_17">
    <path clip-path="url(#pc8859f549d)" d="M 308.724905 307.584 
L 314.597209 307.584 
L 314.597209 270.435156 
L 308.724905 270.435156 
z
" style="fill:#1f77b4;"/>
   </g>
   <g id="patch_18">
    <path clip-path="url(#pc8859f549d)" d="M 325.502918 307.584 
L 331.375222 307.584 
L 331.375222 269.894086 
L 325.502918 269.894086 
z
" style="fill:#1f77b4;"/>
   </g>
   <g id="patch_19">
    <path clip-path="url(#pc8859f549d)" d="M 342.28093 307.584 
L 348.153235 307.584 
L 348.153235 269.369284 
L 342.28093 269.369284 
z
" style="fill:#1f77b4;"/>
   </g>
   <g id="patch_20">
    <path clip-path="url(#pc8859f549d)" d="M 359.058943 307.584 
L 364.931247 307.584 
L 364.931247 268.826033 
L 359.058943 268.826033 
z
" style="fill:#1f77b4;"/>
   </g>
   <g id="patch_21">
    <path clip-path="url(#pc8859f549d)" d="M 375.836956 307.584 
L 381.70926 307.584 
L 381.70926 268.278571 
L 375.836956 268.278571 
z
" style="fill:#1f77b4;"/>
   </g>
   <g id="patch_22">
    <path clip-path="url(#pc8859f549d)" d="M 392.614968 307.584 
L 398.487273 307.584 
L 398.487273 267.732312 
L 392.614968 267.732312 
z
" style="fill:#1f77b4;"/>
   </g>
   <g id="patch_23">
    <path clip-path="url(#pc8859f549d)" d="M 73.832727 307.584 
L 79.705032 307.584 
L 79.705032 300.195621 
L 73.832727 300.195621 
z
" style="fill:#ff7f0e;"/>
   </g>
   <g id="patch_24">
    <path clip-path="url(#pc8859f549d)" d="M 90.61074 307.584 
L 96.483044 307.584 
L 96.483044 282.792797 
L 90.61074 282.792797 
z
" style="fill:#ff7f0e;"/>
   </g>
   <g id="patch_25">
    <path clip-path="url(#pc8859f549d)" d="M 107.388753 307.584 
L 113.261057 307.584 
L 113.261057 281.865957 
L 107.388753 281.865957 
z
" style="fill:#ff7f0e;"/>
   </g>
   <g id="patch_26">
    <path clip-path="url(#pc8859f549d)" d="M 124.166765 307.584 
L 130.03907 307.584 
L 130.03907 280.411509 
L 124.166765 280.411509 
z
" style="fill:#ff7f0e;"/>
   </g>
   <g id="patch_27">
    <path clip-path="url(#pc8859f549d)" d="M 140.944778 307.584 
L 146.817082 307.584 
L 146.817082 278.978905 
L 140.944778 278.978905 
z
" style="fill:#ff7f0e;"/>
   </g>
   <g id="patch_28">
    <path clip-path="url(#pc8859f549d)" d="M 157.722791 307.584 
L 163.595095 307.584 
L 163.595095 277.616474 
L 157.722791 277.616474 
z
" style="fill:#ff7f0e;"/>
   </g>
   <g id="patch_29">
    <path clip-path="url(#pc8859f549d)" d="M 174.500803 307.584 
L 180.373108 307.584 
L 180.373108 276.334252 
L 174.500803 276.334252 
z
" style="fill:#ff7f0e;"/>
   </g>
   <g id="patch_30">
    <path clip-path="url(#pc8859f549d)" d="M 191.278816 307.584 
L 197.151121 307.584 
L 197.151121 275.139478 
L 191.278816 275.139478 
z
" style="fill:#ff7f0e;"/>
   </g>
   <g id="patch_31">
    <path clip-path="url(#pc8859f549d)" d="M 208.056829 307.584 
L 213.929133 307.584 
L 213.929133 274.03091 
L 208.056829 274.03091 
z
" style="fill:#ff7f0e;"/>
   </g>
   <g id="patch_32">
    <path clip-path="url(#pc8859f549d)" d="M 224.834841 307.584 
L 230.707146 307.584 
L 230.707146 273.00697 
L 224.834841 273.00697 
z
" style="fill:#ff7f0e;"/>
   </g>
   <g id="patch_33">
    <path clip-path="url(#pc8859f549d)" d="M 241.612854 307.584 
L 247.485159 307.584 
L 247.485159 272.074344 
L 241.612854 272.074344 
z
" style="fill:#ff7f0e;"/>
   </g>
   <g id="patch_34">
    <path clip-path="url(#pc8859f549d)" d="M 258.390867 307.584 
L 264.263171 307.584 
L 264.263171 271.252126 
L 258.390867 271.252126 
z
" style="fill:#ff7f0e;"/>
   </g>
   <g id="patch_35">
    <path clip-path="url(#pc8859f549d)" d="M 275.168879 307.584 
L 281.041184 307.584 
L 281.041184 270.579775 
L 275.168879 270.579775 
z
" style="fill:#ff7f0e;"/>
   </g>
   <g id="patch_36">
    <path clip-path="url(#pc8859f549d)" d="M 291.946892 307.584 
L 297.819197 307.584 
L 297.819197 270.12565 
L 291.946892 270.12565 
z
" style="fill:#ff7f0e;"/>
   </g>
   <g id="patch_37">
    <path clip-path="url(#pc8859f549d)" d="M 308.724905 307.584 
L 314.597209 307.584 
L 314.597209 269.930831 
L 308.724905 269.930831 
z
" style="fill:#ff7f0e;"/>
   </g>
   <g id="patch_38">
    <path clip-path="url(#pc8859f549d)" d="M 325.502918 307.584 
L 331.375222 307.584 
L 331.375222 269.951697 
L 325.502918 269.951697 
z
" style="fill:#ff7f0e;"/>
   </g>
   <g id="patch_39">
    <path clip-path="url(#pc8859f549d)" d="M 342.28093 307.584 
L 348.153235 307.584 
L 348.153235 270.096787 
L 342.28093 270.096787 
z
" style="fill:#ff7f0e;"/>
   </g>
   <g id="patch_40">
    <path clip-path="url(#pc8859f549d)" d="M 359.058943 307.584 
L 364.931247 307.584 
L 364.931247 270.285627 
L 359.058943 270.285627 
z
" style="fill:#ff7f0e;"/>
   </g>
   <g id="patch_41">
    <path clip-path="url(#pc8859f549d)" d="M 375.836956 307.584 
L 381.70926 307.584 
L 381.70926 270.469118 
L 375.836956 270.469118 
z
" style="fill:#ff7f0e;"/>
   </g>
   <g id="patch_42">
    <path clip-path="url(#pc8859f549d)" d="M 392.614968 307.584 
L 398.487273 307.584 
L 398.487273 270.622399 
L 392.614968 270.622399 
z
" style="fill:#ff7f0e;"/>
   </g>
   <g id="patch_43">
    <path clip-path="url(#pc8859f549d)" d="M 73.832727 307.584 
L 79.705032 307.584 
L 79.705032 302.110633 
L 73.832727 302.110633 
z
" style="fill:#2ca02c;"/>
   </g>
   <g id="patch_44">
    <path clip-path="url(#pc8859f549d)" d="M 90.61074 307.584 
L 96.483044 307.584 
L 96.483044 300.499737 
L 90.61074 300.499737 
z
" style="fill:#2ca02c;"/>
   </g>
   <g id="patch_45">
    <path clip-path="url(#pc8859f549d)" d="M 107.388753 307.584 
L 113.261057 307.584 
L 113.261057 301.244816 
L 107.388753 301.244816 
z
" style="fill:#2ca02c;"/>
   </g>
   <g id="patch_46">
    <path clip-path="url(#pc8859f549d)" d="M 124.166765 307.584 
L 130.03907 307.584 
L 130.03907 301.047547 
L 124.166765 301.047547 
z
" style="fill:#2ca02c;"/>
   </g>
   <g id="patch_47">
    <path clip-path="url(#pc8859f549d)" d="M 140.944778 307.584 
L 146.817082 307.584 
L 146.817082 300.864401 
L 140.944778 300.864401 
z
" style="fill:#2ca02c;"/>
   </g>
   <g id="patch_48">
    <path clip-path="url(#pc8859f549d)" d="M 157.722791 307.584 
L 163.595095 307.584 
L 163.595095 300.763977 
L 157.722791 300.763977 
z
" style="fill:#2ca02c;"/>
   </g>
   <g id="patch_49">
    <path clip-path="url(#pc8859f549d)" d="M 174.500803 307.584 
L 180.373108 307.584 
L 180.373108 300.716271 
L 174.500803 300.716271 
z
" style="fill:#2ca02c;"/>
   </g>
   <g id="patch_50">
    <path clip-path="url(#pc8859f549d)" d="M 191.278816 307.584 
L 197.151121 307.584 
L 197.151121 300.695161 
L 191.278816 300.695161 
z
" style="fill:#2ca02c;"/>
   </g>
   <g id="patch_51">
    <path clip-path="url(#pc8859f549d)" d="M 208.056829 307.584 
L 213.929133 307.584 
L 213.929133 300.686341 
L 208.056829 300.686341 
z
" style="fill:#2ca02c;"/>
   </g>
   <g id="patch_52">
    <path clip-path="url(#pc8859f549d)" d="M 224.834841 307.584 
L 230.707146 307.584 
L 230.707146 300.682942 
L 224.834841 300.682942 
z
" style="fill:#2ca02c;"/>
   </g>
   <g id="patch_53">
    <path clip-path="url(#pc8859f549d)" d="M 241.612854 307.584 
L 247.485159 307.584 
L 247.485159 300.682046 
L 241.612854 300.682046 
z
" style="fill:#2ca02c;"/>
   </g>
   <g id="patch_54">
    <path clip-path="url(#pc8859f549d)" d="M 258.390867 307.584 
L 264.263171 307.584 
L 264.263171 300.68204 
L 258.390867 300.68204 
z
" style="fill:#2ca02c;"/>
   </g>
   <g id="patch_55">
    <path clip-path="url(#pc8859f549d)" d="M 275.168879 307.584 
L 281.041184 307.584 
L 281.041184 300.682045 
L 275.168879 300.682045 
z
" style="fill:#2ca02c;"/>
   </g>
   <g id="patch_56">
    <path clip-path="url(#pc8859f549d)" d="M 291.946892 307.584 
L 297.819197 307.584 
L 297.819197 300.682042 
L 291.946892 300.682042 
z
" style="fill:#2ca02c;"/>
   </g>
   <g id="patch_57">
    <path clip-path="url(#pc8859f549d)" d="M 308.724905 307.584 
L 314.597209 307.584 
L 314.597209 300.682041 
L 308.724905 300.682041 
z
" style="fill:#2ca02c;"/>
   </g>
   <g id="patch_58">
    <path clip-path="url(#pc8859f549d)" d="M 325.502918 307.584 
L 331.375222 307.584 
L 331.375222 300.682042 
L 325.502918 300.682042 
z
" style="fill:#2ca02c;"/>
   </g>
   <g id="patch_59">
    <path clip-path="url(#pc8859f549d)" d="M 342.28093 307.584 
L 348.153235 307.584 
L 348.153235 300.682041 
L 342.28093 300.682041 
z
" style="fill:#2ca02c;"/>
   </g>
   <g id="patch_60">
    <path clip-path="url(#pc8859f549d)" d="M 359.058943 307.584 
L 364.931247 307.584 
L 364.931247 300.68204 
L 359.058943 300.68204 
z
" style="fill:#2ca02c;"/>
   </g>
   <g id="patch_61">
    <path clip-path="url(#pc8859f549d)" d="M 73.832727 307.584 
L 79.705032 307.584 
L 79.705032 297.896697 
L 73.832727 297.896697 
z
" style="fill:#d62728;"/>
   </g>
   <g id="patch_62">
    <path clip-path="url(#pc8859f549d)" d="M 90.61074 307.584 
L 96.483044 307.584 
L 96.483044 278.962945 
L 90.61074 278.962945 
z
" style="fill:#d62728;"/>
   </g>
   <g id="patch_63">
    <path clip-path="url(#pc8859f549d)" d="M 107.388753 307.584 
L 113.261057 307.584 
L 113.261057 278.152291 
L 107.388753 278.152291 
z
" style="fill:#d62728;"/>
   </g>
   <g id="patch_64">
    <path clip-path="url(#pc8859f549d)" d="M 124.166765 307.584 
L 130.03907 307.584 
L 130.03907 277.37851 
L 124.166765 277.37851 
z
" style="fill:#d62728;"/>
   </g>
   <g id="patch_65">
    <path clip-path="url(#pc8859f549d)" d="M 140.944778 307.584 
L 146.817082 307.584 
L 146.817082 276.647104 
L 140.944778 276.647104 
z
" style="fill:#d62728;"/>
   </g>
   <g id="patch_66">
    <path clip-path="url(#pc8859f549d)" d="M 157.722791 307.584 
L 163.595095 307.584 
L 163.595095 275.951959 
L 157.722791 275.951959 
z
" style="fill:#d62728;"/>
   </g>
   <g id="patch_67">
    <path clip-path="url(#pc8859f549d)" d="M 174.500803 307.584 
L 180.373108 307.584 
L 180.373108 275.278752 
L 174.500803 275.278752 
z
" style="fill:#d62728;"/>
   </g>
   <g id="patch_68">
    <path clip-path="url(#pc8859f549d)" d="M 191.278816 307.584 
L 197.151121 307.584 
L 197.151121 274.619043 
L 191.278816 274.619043 
z
" style="fill:#d62728;"/>
   </g>
   <g id="patch_69">
    <path clip-path="url(#pc8859f549d)" d="M 208.056829 307.584 
L 213.929133 307.584 
L 213.929133 273.965321 
L 208.056829 273.965321 
z
" style="fill:#d62728;"/>
   </g>
   <g id="patch_70">
    <path clip-path="url(#pc8859f549d)" d="M 224.834841 307.584 
L 230.707146 307.584 
L 230.707146 273.312477 
L 224.834841 273.312477 
z
" style="fill:#d62728;"/>
   </g>
   <g id="patch_71">
    <path clip-path="url(#pc8859f549d)" d="M 241.612854 307.584 
L 247.485159 307.584 
L 247.485159 272.666503 
L 241.612854 272.666503 
z
" style="fill:#d62728;"/>
   </g>
   <g id="patch_72">
    <path clip-path="url(#pc8859f549d)" d="M 258.390867 307.584 
L 264.263171 307.584 
L 264.263171 272.061908 
L 258.390867 272.061908 
z
" style="fill:#d62728;"/>
   </g>
   <g id="patch_73">
    <path clip-path="url(#pc8859f549d)" d="M 275.168879 307.584 
L 281.041184 307.584 
L 281.041184 271.529548 
L 275.168879 271.529548 
z
" style="fill:#d62728;"/>
   </g>
   <g id="patch_74">
    <path clip-path="url(#pc8859f549d)" d="M 291.946892 307.584 
L 297.819197 307.584 
L 297.819197 271.019159 
L 291.946892 271.019159 
z
" style="fill:#d62728;"/>
   </g>
   <g id="patch_75">
    <path clip-path="url(#pc8859f549d)" d="M 308.724905 307.584 
L 314.597209 307.584 
L 314.597209 270.486091 
L 308.724905 270.486091 
z
" style="fill:#d62728;"/>
   </g>
   <g id="patch_76">
    <path clip-path="url(#pc8859f549d)" d="M 325.502918 307.584 
L 331.375222 307.584 
L 331.375222 269.953612 
L 325.502918 269.953612 
z
" style="fill:#d62728;"/>
   </g>
   <g id="patch_77">
    <path clip-path="url(#pc8859f549d)" d="M 342.28093 307.584 
L 348.153235 307.584 
L 348.153235 269.45453 
L 342.28093 269.45453 
z
" style="fill:#d62728;"/>
   </g>
   <g id="patch_78">
    <path clip-path="url(#pc8859f549d)" d="M 359.058943 307.584 
L 364.931247 307.584 
L 364.931247 268.932509 
L 359.058943 268.932509 
z
" style="fill:#d62728;"/>
   </g>
   <g id="patch_79">
    <path clip-path="url(#pc8859f549d)" d="M 375.836956 307.584 
L 381.70926 307.584 
L 381.70926 268.405564 
L 375.836956 268.405564 
z
" style="fill:#d62728;"/>
   </g>
   <g id="patch_80">
    <path clip-path="url(#pc8859f549d)" d="M 392.614968 307.584 
L 398.487273 307.584 
L 398.487273 267.855219 
L 392.614968 267.855219 
z
" style="fill:#d62728;"/>
   </g>
   <g id="patch_81">
    <path clip-path="url(#pc8859f549d)" d="M 73.832727 307.584 
L 79.705032 307.584 
L 79.705032 54.144048 
L 73.832727 54.144048 
z
" style="fill:#9467bd;"/>
   </g>
   <g id="patch_82">
    <path clip-path="url(#pc8859f549d)" d="M 90.61074 307.584 
L 96.483044 307.584 
L 96.483044 307.582728 
L 90.61074 307.582728 
z
" style="fill:#9467bd;"/>
   </g>
   <g id="patch_83">
    <path clip-path="url(#pc8859f549d)" d="M 107.388753 307.584 
L 113.261057 307.584 
L 113.261057 307.583999 
L 107.388753 307.583999 
z
" style="fill:#9467bd;"/>
   </g>
   <g id="patch_84">
    <path clip-path="url(#pc8859f549d)" d="M 124.166765 307.584 
L 130.03907 307.584 
L 130.03907 307.584 
L 124.166765 307.584 
z
" style="fill:#9467bd;"/>
   </g>
   <g id="patch_85">
    <path clip-path="url(#pc8859f549d)" d="M 140.944778 307.584 
L 146.817082 307.584 
L 146.817082 307.583997 
L 140.944778 307.583997 
z
" style="fill:#9467bd;"/>
   </g>
   <g id="patch_86">
    <path clip-path="url(#pc8859f549d)" d="M 157.722791 307.584 
L 163.595095 307.584 
L 163.595095 307.58399 
L 157.722791 307.58399 
z
" style="fill:#9467bd;"/>
   </g>
   <g id="patch_87">
    <path clip-path="url(#pc8859f549d)" d="M 174.500803 307.584 
L 180.373108 307.584 
L 180.373108 307.583954 
L 174.500803 307.583954 
z
" style="fill:#9467bd;"/>
   </g>
   <g id="patch_88">
    <path clip-path="url(#pc8859f549d)" d="M 191.278816 307.584 
L 197.151121 307.584 
L 197.151121 307.583813 
L 191.278816 307.583813 
z
" style="fill:#9467bd;"/>
   </g>
   <g id="patch_89">
    <path clip-path="url(#pc8859f549d)" d="M 208.056829 307.584 
L 213.929133 307.584 
L 213.929133 307.583368 
L 208.056829 307.583368 
z
" style="fill:#9467bd;"/>
   </g>
   <g id="patch_90">
    <path clip-path="url(#pc8859f549d)" d="M 224.834841 307.584 
L 230.707146 307.584 
L 230.707146 307.582006 
L 224.834841 307.582006 
z
" style="fill:#9467bd;"/>
   </g>
   <g id="patch_91">
    <path clip-path="url(#pc8859f549d)" d="M 241.612854 307.584 
L 247.485159 307.584 
L 247.485159 307.578775 
L 241.612854 307.578775 
z
" style="fill:#9467bd;"/>
   </g>
   <g id="patch_92">
    <path clip-path="url(#pc8859f549d)" d="M 258.390867 307.584 
L 264.263171 307.584 
L 264.263171 307.576087 
L 258.390867 307.576087 
z
" style="fill:#9467bd;"/>
   </g>
   <g id="patch_93">
    <path clip-path="url(#pc8859f549d)" d="M 275.168879 307.584 
L 281.041184 307.584 
L 281.041184 307.575238 
L 275.168879 307.575238 
z
" style="fill:#9467bd;"/>
   </g>
   <g id="patch_94">
    <path clip-path="url(#pc8859f549d)" d="M 291.946892 307.584 
L 297.819197 307.584 
L 297.819197 307.575002 
L 291.946892 307.575002 
z
" style="fill:#9467bd;"/>
   </g>
   <g id="patch_95">
    <path clip-path="url(#pc8859f549d)" d="M 308.724905 307.584 
L 314.597209 307.584 
L 314.597209 307.574926 
L 308.724905 307.574926 
z
" style="fill:#9467bd;"/>
   </g>
   <g id="patch_96">
    <path clip-path="url(#pc8859f549d)" d="M 325.502918 307.584 
L 331.375222 307.584 
L 331.375222 307.574905 
L 325.502918 307.574905 
z
" style="fill:#9467bd;"/>
   </g>
   <g id="patch_97">
    <path clip-path="url(#pc8859f549d)" d="M 342.28093 307.584 
L 348.153235 307.584 
L 348.153235 307.574897 
L 342.28093 307.574897 
z
" style="fill:#9467bd;"/>
   </g>
   <g id="patch_98">
    <path clip-path="url(#pc8859f549d)" d="M 359.058943 307.584 
L 364.931247 307.584 
L 364.931247 307.574895 
L 359.058943 307.574895 
z
" style="fill:#9467bd;"/>
   </g>
   <g id="patch_99">
    <path clip-path="url(#pc8859f549d)" d="M 73.832727 307.584 
L 79.705032 307.584 
L 79.705032 54.144 
L 73.832727 54.144 
z
" style="fill:#8c564b;"/>
   </g>
   <g id="patch_100">
    <path clip-path="url(#pc8859f549d)" d="M 90.61074 307.584 
L 96.483044 307.584 
L 96.483044 217.509696 
L 90.61074 217.509696 
z
" style="fill:#8c564b;"/>
   </g>
   <g id="patch_101">
    <path clip-path="url(#pc8859f549d)" d="M 107.388753 307.584 
L 113.261057 307.584 
L 113.261057 220.130101 
L 107.388753 220.130101 
z
" style="fill:#8c564b;"/>
   </g>
   <g id="patch_102">
    <path clip-path="url(#pc8859f549d)" d="M 124.166765 307.584 
L 130.03907 307.584 
L 130.03907 219.007482 
L 124.166765 219.007482 
z
" style="fill:#8c564b;"/>
   </g>
   <g id="patch_103">
    <path clip-path="url(#pc8859f549d)" d="M 140.944778 307.584 
L 146.817082 307.584 
L 146.817082 217.176825 
L 140.944778 217.176825 
z
" style="fill:#8c564b;"/>
   </g>
   <g id="patch_104">
    <path clip-path="url(#pc8859f549d)" d="M 157.722791 307.584 
L 163.595095 307.584 
L 163.595095 214.962651 
L 157.722791 214.962651 
z
" style="fill:#8c564b;"/>
   </g>
   <g id="patch_105">
    <path clip-path="url(#pc8859f549d)" d="M 174.500803 307.584 
L 180.373108 307.584 
L 180.373108 212.288659 
L 174.500803 212.288659 
z
" style="fill:#8c564b;"/>
   </g>
   <g id="patch_106">
    <path clip-path="url(#pc8859f549d)" d="M 191.278816 307.584 
L 197.151121 307.584 
L 197.151121 209.108383 
L 191.278816 209.108383 
z
" style="fill:#8c564b;"/>
   </g>
   <g id="patch_107">
    <path clip-path="url(#pc8859f549d)" d="M 208.056829 307.584 
L 213.929133 307.584 
L 213.929133 205.252251 
L 208.056829 205.252251 
z
" style="fill:#8c564b;"/>
   </g>
   <g id="patch_108">
    <path clip-path="url(#pc8859f549d)" d="M 224.834841 307.584 
L 230.707146 307.584 
L 230.707146 200.53789 
L 224.834841 200.53789 
z
" style="fill:#8c564b;"/>
   </g>
   <g id="patch_109">
    <path clip-path="url(#pc8859f549d)" d="M 241.612854 307.584 
L 247.485159 307.584 
L 247.485159 194.747812 
L 241.612854 194.747812 
z
" style="fill:#8c564b;"/>
   </g>
   <g id="patch_110">
    <path clip-path="url(#pc8859f549d)" d="M 258.390867 307.584 
L 264.263171 307.584 
L 264.263171 187.746221 
L 258.390867 187.746221 
z
" style="fill:#8c564b;"/>
   </g>
   <g id="patch_111">
    <path clip-path="url(#pc8859f549d)" d="M 275.168879 307.584 
L 281.041184 307.584 
L 281.041184 179.698948 
L 275.168879 179.698948 
z
" style="fill:#8c564b;"/>
   </g>
   <g id="patch_112">
    <path clip-path="url(#pc8859f549d)" d="M 291.946892 307.584 
L 297.819197 307.584 
L 297.819197 171.417902 
L 291.946892 171.417902 
z
" style="fill:#8c564b;"/>
   </g>
   <g id="patch_113">
    <path clip-path="url(#pc8859f549d)" d="M 308.724905 307.584 
L 314.597209 307.584 
L 314.597209 164.050754 
L 308.724905 164.050754 
z
" style="fill:#8c564b;"/>
   </g>
   <g id="patch_114">
    <path clip-path="url(#pc8859f549d)" d="M 325.502918 307.584 
L 331.375222 307.584 
L 331.375222 158.288638 
L 325.502918 158.288638 
z
" style="fill:#8c564b;"/>
   </g>
   <g id="patch_115">
    <path clip-path="url(#pc8859f549d)" d="M 342.28093 307.584 
L 348.153235 307.584 
L 348.153235 154.110078 
L 342.28093 154.110078 
z
" style="fill:#8c564b;"/>
   </g>
   <g id="patch_116">
    <path clip-path="url(#pc8859f549d)" d="M 359.058943 307.584 
L 364.931247 307.584 
L 364.931247 151.227931 
L 359.058943 151.227931 
z
" style="fill:#8c564b;"/>
   </g>
   <g id="patch_117">
    <path clip-path="url(#pc8859f549d)" d="M 375.836956 307.584 
L 381.70926 307.584 
L 381.70926 149.371727 
L 375.836956 149.371727 
z
" style="fill:#8c564b;"/>
   </g>
   <g id="patch_118">
    <path clip-path="url(#pc8859f549d)" d="M 392.614968 307.584 
L 398.487273 307.584 
L 398.487273 148.362893 
L 392.614968 148.362893 
z
" style="fill:#8c564b;"/>
   </g>
   <g id="patch_119">
    <path clip-path="url(#pc8859f549d)" d="M 73.832727 307.584 
L 79.705032 307.584 
L 79.705032 54.144159 
L 73.832727 54.144159 
z
" style="fill:#e377c2;"/>
   </g>
   <g id="patch_120">
    <path clip-path="url(#pc8859f549d)" d="M 90.61074 307.584 
L 96.483044 307.584 
L 96.483044 150.238593 
L 90.61074 150.238593 
z
" style="fill:#e377c2;"/>
   </g>
   <g id="patch_121">
    <path clip-path="url(#pc8859f549d)" d="M 107.388753 307.584 
L 113.261057 307.584 
L 113.261057 149.993796 
L 107.388753 149.993796 
z
" style="fill:#e377c2;"/>
   </g>
   <g id="patch_122">
    <path clip-path="url(#pc8859f549d)" d="M 124.166765 307.584 
L 130.03907 307.584 
L 130.03907 149.179742 
L 124.166765 149.179742 
z
" style="fill:#e377c2;"/>
   </g>
   <g id="patch_123">
    <path clip-path="url(#pc8859f549d)" d="M 140.944778 307.584 
L 146.817082 307.584 
L 146.817082 148.184409 
L 140.944778 148.184409 
z
" style="fill:#e377c2;"/>
   </g>
   <g id="patch_124">
    <path clip-path="url(#pc8859f549d)" d="M 157.722791 307.584 
L 163.595095 307.584 
L 163.595095 147.130986 
L 157.722791 147.130986 
z
" style="fill:#e377c2;"/>
   </g>
   <g id="patch_125">
    <path clip-path="url(#pc8859f549d)" d="M 174.500803 307.584 
L 180.373108 307.584 
L 180.373108 146.013356 
L 174.500803 146.013356 
z
" style="fill:#e377c2;"/>
   </g>
   <g id="patch_126">
    <path clip-path="url(#pc8859f549d)" d="M 191.278816 307.584 
L 197.151121 307.584 
L 197.151121 144.819374 
L 191.278816 144.819374 
z
" style="fill:#e377c2;"/>
   </g>
   <g id="patch_127">
    <path clip-path="url(#pc8859f549d)" d="M 208.056829 307.584 
L 213.929133 307.584 
L 213.929133 143.549032 
L 208.056829 143.549032 
z
" style="fill:#e377c2;"/>
   </g>
   <g id="patch_128">
    <path clip-path="url(#pc8859f549d)" d="M 224.834841 307.584 
L 230.707146 307.584 
L 230.707146 142.207327 
L 224.834841 142.207327 
z
" style="fill:#e377c2;"/>
   </g>
   <g id="patch_129">
    <path clip-path="url(#pc8859f549d)" d="M 241.612854 307.584 
L 247.485159 307.584 
L 247.485159 140.854566 
L 241.612854 140.854566 
z
" style="fill:#e377c2;"/>
   </g>
   <g id="patch_130">
    <path clip-path="url(#pc8859f549d)" d="M 258.390867 307.584 
L 264.263171 307.584 
L 264.263171 139.544035 
L 258.390867 139.544035 
z
" style="fill:#e377c2;"/>
   </g>
   <g id="patch_131">
    <path clip-path="url(#pc8859f549d)" d="M 275.168879 307.584 
L 281.041184 307.584 
L 281.041184 138.35266 
L 275.168879 138.35266 
z
" style="fill:#e377c2;"/>
   </g>
   <g id="patch_132">
    <path clip-path="url(#pc8859f549d)" d="M 291.946892 307.584 
L 297.819197 307.584 
L 297.819197 137.200245 
L 291.946892 137.200245 
z
" style="fill:#e377c2;"/>
   </g>
   <g id="patch_133">
    <path clip-path="url(#pc8859f549d)" d="M 308.724905 307.584 
L 314.597209 307.584 
L 314.597209 135.952707 
L 308.724905 135.952707 
z
" style="fill:#e377c2;"/>
   </g>
   <g id="patch_134">
    <path clip-path="url(#pc8859f549d)" d="M 325.502918 307.584 
L 331.375222 307.584 
L 331.375222 134.642057 
L 325.502918 134.642057 
z
" style="fill:#e377c2;"/>
   </g>
   <g id="patch_135">
    <path clip-path="url(#pc8859f549d)" d="M 342.28093 307.584 
L 348.153235 307.584 
L 348.153235 133.352391 
L 342.28093 133.352391 
z
" style="fill:#e377c2;"/>
   </g>
   <g id="patch_136">
    <path clip-path="url(#pc8859f549d)" d="M 359.058943 307.584 
L 364.931247 307.584 
L 364.931247 131.788082 
L 359.058943 131.788082 
z
" style="fill:#e377c2;"/>
   </g>
   <g id="patch_137">
    <path clip-path="url(#pc8859f549d)" d="M 375.836956 307.584 
L 381.70926 307.584 
L 381.70926 129.858749 
L 375.836956 129.858749 
z
" style="fill:#e377c2;"/>
   </g>
   <g id="patch_138">
    <path clip-path="url(#pc8859f549d)" d="M 392.614968 307.584 
L 398.487273 307.584 
L 398.487273 127.280318 
L 392.614968 127.280318 
z
" style="fill:#e377c2;"/>
   </g>
   <g id="patch_139">
    <path clip-path="url(#pc8859f549d)" d="M 73.832727 307.584 
L 79.705032 307.584 
L 79.705032 54.144052 
L 73.832727 54.144052 
z
" style="fill:#7f7f7f;"/>
   </g>
   <g id="patch_140">
    <path clip-path="url(#pc8859f549d)" d="M 90.61074 307.584 
L 96.483044 307.584 
L 96.483044 139.060602 
L 90.61074 139.060602 
z
" style="fill:#7f7f7f;"/>
   </g>
   <g id="patch_141">
    <path clip-path="url(#pc8859f549d)" d="M 107.388753 307.584 
L 113.261057 307.584 
L 113.261057 138.640852 
L 107.388753 138.640852 
z
" style="fill:#7f7f7f;"/>
   </g>
   <g id="patch_142">
    <path clip-path="url(#pc8859f549d)" d="M 124.166765 307.584 
L 130.03907 307.584 
L 130.03907 138.074991 
L 124.166765 138.074991 
z
" style="fill:#7f7f7f;"/>
   </g>
   <g id="patch_143">
    <path clip-path="url(#pc8859f549d)" d="M 140.944778 307.584 
L 146.817082 307.584 
L 146.817082 137.48959 
L 140.944778 137.48959 
z
" style="fill:#7f7f7f;"/>
   </g>
   <g id="patch_144">
    <path clip-path="url(#pc8859f549d)" d="M 157.722791 307.584 
L 163.595095 307.584 
L 163.595095 136.933123 
L 157.722791 136.933123 
z
" style="fill:#7f7f7f;"/>
   </g>
   <g id="patch_145">
    <path clip-path="url(#pc8859f549d)" d="M 174.500803 307.584 
L 180.373108 307.584 
L 180.373108 136.417684 
L 174.500803 136.417684 
z
" style="fill:#7f7f7f;"/>
   </g>
   <g id="patch_146">
    <path clip-path="url(#pc8859f549d)" d="M 191.278816 307.584 
L 197.151121 307.584 
L 197.151121 135.917396 
L 191.278816 135.917396 
z
" style="fill:#7f7f7f;"/>
   </g>
   <g id="patch_147">
    <path clip-path="url(#pc8859f549d)" d="M 208.056829 307.584 
L 213.929133 307.584 
L 213.929133 135.422198 
L 208.056829 135.422198 
z
" style="fill:#7f7f7f;"/>
   </g>
   <g id="patch_148">
    <path clip-path="url(#pc8859f549d)" d="M 224.834841 307.584 
L 230.707146 307.584 
L 230.707146 134.90395 
L 224.834841 134.90395 
z
" style="fill:#7f7f7f;"/>
   </g>
   <g id="patch_149">
    <path clip-path="url(#pc8859f549d)" d="M 241.612854 307.584 
L 247.485159 307.584 
L 247.485159 134.378318 
L 241.612854 134.378318 
z
" style="fill:#7f7f7f;"/>
   </g>
   <g id="patch_150">
    <path clip-path="url(#pc8859f549d)" d="M 258.390867 307.584 
L 264.263171 307.584 
L 264.263171 133.934598 
L 258.390867 133.934598 
z
" style="fill:#7f7f7f;"/>
   </g>
   <g id="patch_151">
    <path clip-path="url(#pc8859f549d)" d="M 275.168879 307.584 
L 281.041184 307.584 
L 281.041184 133.783327 
L 275.168879 133.783327 
z
" style="fill:#7f7f7f;"/>
   </g>
   <g id="patch_152">
    <path clip-path="url(#pc8859f549d)" d="M 291.946892 307.584 
L 297.819197 307.584 
L 297.819197 133.946158 
L 291.946892 133.946158 
z
" style="fill:#7f7f7f;"/>
   </g>
   <g id="patch_153">
    <path clip-path="url(#pc8859f549d)" d="M 308.724905 307.584 
L 314.597209 307.584 
L 314.597209 134.170912 
L 308.724905 134.170912 
z
" style="fill:#7f7f7f;"/>
   </g>
   <g id="patch_154">
    <path clip-path="url(#pc8859f549d)" d="M 325.502918 307.584 
L 331.375222 307.584 
L 331.375222 134.369875 
L 325.502918 134.369875 
z
" style="fill:#7f7f7f;"/>
   </g>
   <g id="patch_155">
    <path clip-path="url(#pc8859f549d)" d="M 342.28093 307.584 
L 348.153235 307.584 
L 348.153235 134.936701 
L 342.28093 134.936701 
z
" style="fill:#7f7f7f;"/>
   </g>
   <g id="patch_156">
    <path clip-path="url(#pc8859f549d)" d="M 359.058943 307.584 
L 364.931247 307.584 
L 364.931247 135.613031 
L 359.058943 135.613031 
z
" style="fill:#7f7f7f;"/>
   </g>
   <g id="patch_157">
    <path clip-path="url(#pc8859f549d)" d="M 375.836956 307.584 
L 381.70926 307.584 
L 381.70926 136.424712 
L 375.836956 136.424712 
z
" style="fill:#7f7f7f;"/>
   </g>
   <g id="patch_158">
    <path clip-path="url(#pc8859f549d)" d="M 392.614968 307.584 
L 398.487273 307.584 
L 398.487273 137.02095 
L 392.614968 137.02095 
z
" style="fill:#7f7f7f;"/>
   </g>
   <g id="matplotlib.axis_1">
    <g id="xtick_1">
     <g id="line2d_1">
      <defs>
       <path d="M 0 0 
L 0 3.5 
" id="mebc1410019" style="stroke:#000000;stroke-width:0.8;"/>
      </defs>
      <g>
       <use style="stroke:#000000;stroke-width:0.8;" x="59.990867" xlink:href="#mebc1410019" y="307.584"/>
      </g>
     </g>
     <g id="text_1">
      <!-- 0.0 -->
      <defs>
       <path d="M 31.78125 66.40625 
Q 24.171875 66.40625 20.328125 58.90625 
Q 16.5 51.421875 16.5 36.375 
Q 16.5 21.390625 20.328125 13.890625 
Q 24.171875 6.390625 31.78125 6.390625 
Q 39.453125 6.390625 43.28125 13.890625 
Q 47.125 21.390625 47.125 36.375 
Q 47.125 51.421875 43.28125 58.90625 
Q 39.453125 66.40625 31.78125 66.40625 
z
M 31.78125 74.21875 
Q 44.046875 74.21875 50.515625 64.515625 
Q 56.984375 54.828125 56.984375 36.375 
Q 56.984375 17.96875 50.515625 8.265625 
Q 44.046875 -1.421875 31.78125 -1.421875 
Q 19.53125 -1.421875 13.0625 8.265625 
Q 6.59375 17.96875 6.59375 36.375 
Q 6.59375 54.828125 13.0625 64.515625 
Q 19.53125 74.21875 31.78125 74.21875 
z
" id="DejaVuSans-48"/>
       <path d="M 10.6875 12.40625 
L 21 12.40625 
L 21 0 
L 10.6875 0 
z
" id="DejaVuSans-46"/>
      </defs>
      <g transform="translate(52.039304 322.182437)scale(0.1 -0.1)">
       <use xlink:href="#DejaVuSans-48"/>
       <use x="63.623047" xlink:href="#DejaVuSans-46"/>
       <use x="95.410156" xlink:href="#DejaVuSans-48"/>
      </g>
     </g>
    </g>
    <g id="xtick_2">
     <g id="line2d_2">
      <g>
       <use style="stroke:#000000;stroke-width:0.8;" x="101.935899" xlink:href="#mebc1410019" y="307.584"/>
      </g>
     </g>
     <g id="text_2">
      <!-- 2.5 -->
      <defs>
       <path d="M 19.1875 8.296875 
L 53.609375 8.296875 
L 53.609375 0 
L 7.328125 0 
L 7.328125 8.296875 
Q 12.9375 14.109375 22.625 23.890625 
Q 32.328125 33.6875 34.8125 36.53125 
Q 39.546875 41.84375 41.421875 45.53125 
Q 43.3125 49.21875 43.3125 52.78125 
Q 43.3125 58.59375 39.234375 62.25 
Q 35.15625 65.921875 28.609375 65.921875 
Q 23.96875 65.921875 18.8125 64.3125 
Q 13.671875 62.703125 7.8125 59.421875 
L 7.8125 69.390625 
Q 13.765625 71.78125 18.9375 73 
Q 24.125 74.21875 28.421875 74.21875 
Q 39.75 74.21875 46.484375 68.546875 
Q 53.21875 62.890625 53.21875 53.421875 
Q 53.21875 48.921875 51.53125 44.890625 
Q 49.859375 40.875 45.40625 35.40625 
Q 44.1875 33.984375 37.640625 27.21875 
Q 31.109375 20.453125 19.1875 8.296875 
z
" id="DejaVuSans-50"/>
       <path d="M 10.796875 72.90625 
L 49.515625 72.90625 
L 49.515625 64.59375 
L 19.828125 64.59375 
L 19.828125 46.734375 
Q 21.96875 47.46875 24.109375 47.828125 
Q 26.265625 48.1875 28.421875 48.1875 
Q 40.625 48.1875 47.75 41.5 
Q 54.890625 34.8125 54.890625 23.390625 
Q 54.890625 11.625 47.5625 5.09375 
Q 40.234375 -1.421875 26.90625 -1.421875 
Q 22.3125 -1.421875 17.546875 -0.640625 
Q 12.796875 0.140625 7.71875 1.703125 
L 7.71875 11.625 
Q 12.109375 9.234375 16.796875 8.0625 
Q 21.484375 6.890625 26.703125 6.890625 
Q 35.15625 6.890625 40.078125 11.328125 
Q 45.015625 15.765625 45.015625 23.390625 
Q 45.015625 31 40.078125 35.4375 
Q 35.15625 39.890625 26.703125 39.890625 
Q 22.75 39.890625 18.8125 39.015625 
Q 14.890625 38.140625 10.796875 36.28125 
z
" id="DejaVuSans-53"/>
      </defs>
      <g transform="translate(93.984336 322.182437)scale(0.1 -0.1)">
       <use xlink:href="#DejaVuSans-50"/>
       <use x="63.623047" xlink:href="#DejaVuSans-46"/>
       <use x="95.410156" xlink:href="#DejaVuSans-53"/>
      </g>
     </g>
    </g>
    <g id="xtick_3">
     <g id="line2d_3">
      <g>
       <use style="stroke:#000000;stroke-width:0.8;" x="143.88093" xlink:href="#mebc1410019" y="307.584"/>
      </g>
     </g>
     <g id="text_3">
      <!-- 5.0 -->
      <g transform="translate(135.929368 322.182437)scale(0.1 -0.1)">
       <use xlink:href="#DejaVuSans-53"/>
       <use x="63.623047" xlink:href="#DejaVuSans-46"/>
       <use x="95.410156" xlink:href="#DejaVuSans-48"/>
      </g>
     </g>
    </g>
    <g id="xtick_4">
     <g id="line2d_4">
      <g>
       <use style="stroke:#000000;stroke-width:0.8;" x="185.825962" xlink:href="#mebc1410019" y="307.584"/>
      </g>
     </g>
     <g id="text_4">
      <!-- 7.5 -->
      <defs>
       <path d="M 8.203125 72.90625 
L 55.078125 72.90625 
L 55.078125 68.703125 
L 28.609375 0 
L 18.3125 0 
L 43.21875 64.59375 
L 8.203125 64.59375 
z
" id="DejaVuSans-55"/>
      </defs>
      <g transform="translate(177.874399 322.182437)scale(0.1 -0.1)">
       <use xlink:href="#DejaVuSans-55"/>
       <use x="63.623047" xlink:href="#DejaVuSans-46"/>
       <use x="95.410156" xlink:href="#DejaVuSans-53"/>
      </g>
     </g>
    </g>
    <g id="xtick_5">
     <g id="line2d_5">
      <g>
       <use style="stroke:#000000;stroke-width:0.8;" x="227.770994" xlink:href="#mebc1410019" y="307.584"/>
      </g>
     </g>
     <g id="text_5">
      <!-- 10.0 -->
      <defs>
       <path d="M 12.40625 8.296875 
L 28.515625 8.296875 
L 28.515625 63.921875 
L 10.984375 60.40625 
L 10.984375 69.390625 
L 28.421875 72.90625 
L 38.28125 72.90625 
L 38.28125 8.296875 
L 54.390625 8.296875 
L 54.390625 0 
L 12.40625 0 
z
" id="DejaVuSans-49"/>
      </defs>
      <g transform="translate(216.638181 322.182437)scale(0.1 -0.1)">
       <use xlink:href="#DejaVuSans-49"/>
       <use x="63.623047" xlink:href="#DejaVuSans-48"/>
       <use x="127.246094" xlink:href="#DejaVuSans-46"/>
       <use x="159.033203" xlink:href="#DejaVuSans-48"/>
      </g>
     </g>
    </g>
    <g id="xtick_6">
     <g id="line2d_6">
      <g>
       <use style="stroke:#000000;stroke-width:0.8;" x="269.716025" xlink:href="#mebc1410019" y="307.584"/>
      </g>
     </g>
     <g id="text_6">
      <!-- 12.5 -->
      <g transform="translate(258.583213 322.182437)scale(0.1 -0.1)">
       <use xlink:href="#DejaVuSans-49"/>
       <use x="63.623047" xlink:href="#DejaVuSans-50"/>
       <use x="127.246094" xlink:href="#DejaVuSans-46"/>
       <use x="159.033203" xlink:href="#DejaVuSans-53"/>
      </g>
     </g>
    </g>
    <g id="xtick_7">
     <g id="line2d_7">
      <g>
       <use style="stroke:#000000;stroke-width:0.8;" x="311.661057" xlink:href="#mebc1410019" y="307.584"/>
      </g>
     </g>
     <g id="text_7">
      <!-- 15.0 -->
      <g transform="translate(300.528245 322.182437)scale(0.1 -0.1)">
       <use xlink:href="#DejaVuSans-49"/>
       <use x="63.623047" xlink:href="#DejaVuSans-53"/>
       <use x="127.246094" xlink:href="#DejaVuSans-46"/>
       <use x="159.033203" xlink:href="#DejaVuSans-48"/>
      </g>
     </g>
    </g>
    <g id="xtick_8">
     <g id="line2d_8">
      <g>
       <use style="stroke:#000000;stroke-width:0.8;" x="353.606089" xlink:href="#mebc1410019" y="307.584"/>
      </g>
     </g>
     <g id="text_8">
      <!-- 17.5 -->
      <g transform="translate(342.473276 322.182437)scale(0.1 -0.1)">
       <use xlink:href="#DejaVuSans-49"/>
       <use x="63.623047" xlink:href="#DejaVuSans-55"/>
       <use x="127.246094" xlink:href="#DejaVuSans-46"/>
       <use x="159.033203" xlink:href="#DejaVuSans-53"/>
      </g>
     </g>
    </g>
    <g id="xtick_9">
     <g id="line2d_9">
      <g>
       <use style="stroke:#000000;stroke-width:0.8;" x="395.551121" xlink:href="#mebc1410019" y="307.584"/>
      </g>
     </g>
     <g id="text_9">
      <!-- 20.0 -->
      <g transform="translate(384.418308 322.182437)scale(0.1 -0.1)">
       <use xlink:href="#DejaVuSans-50"/>
       <use x="63.623047" xlink:href="#DejaVuSans-48"/>
       <use x="127.246094" xlink:href="#DejaVuSans-46"/>
       <use x="159.033203" xlink:href="#DejaVuSans-48"/>
      </g>
     </g>
    </g>
    <g id="text_10">
     <!-- Thr -->
     <defs>
      <path d="M -0.296875 72.90625 
L 61.375 72.90625 
L 61.375 64.59375 
L 35.5 64.59375 
L 35.5 0 
L 25.59375 0 
L 25.59375 64.59375 
L -0.296875 64.59375 
z
" id="DejaVuSans-84"/>
      <path d="M 54.890625 33.015625 
L 54.890625 0 
L 45.90625 0 
L 45.90625 32.71875 
Q 45.90625 40.484375 42.875 44.328125 
Q 39.84375 48.1875 33.796875 48.1875 
Q 26.515625 48.1875 22.3125 43.546875 
Q 18.109375 38.921875 18.109375 30.90625 
L 18.109375 0 
L 9.078125 0 
L 9.078125 75.984375 
L 18.109375 75.984375 
L 18.109375 46.1875 
Q 21.34375 51.125 25.703125 53.5625 
Q 30.078125 56 35.796875 56 
Q 45.21875 56 50.046875 50.171875 
Q 54.890625 44.34375 54.890625 33.015625 
z
" id="DejaVuSans-104"/>
      <path d="M 41.109375 46.296875 
Q 39.59375 47.171875 37.8125 47.578125 
Q 36.03125 48 33.890625 48 
Q 26.265625 48 22.1875 43.046875 
Q 18.109375 38.09375 18.109375 28.8125 
L 18.109375 0 
L 9.078125 0 
L 9.078125 54.6875 
L 18.109375 54.6875 
L 18.109375 46.1875 
Q 20.953125 51.171875 25.484375 53.578125 
Q 30.03125 56 36.53125 56 
Q 37.453125 56 38.578125 55.875 
Q 39.703125 55.765625 41.0625 55.515625 
z
" id="DejaVuSans-114"/>
     </defs>
     <g transform="translate(227.881875 335.860562)scale(0.1 -0.1)">
      <use xlink:href="#DejaVuSans-84"/>
      <use x="61.083984" xlink:href="#DejaVuSans-104"/>
      <use x="124.462891" xlink:href="#DejaVuSans-114"/>
     </g>
    </g>
   </g>
   <g id="matplotlib.axis_2">
    <g id="ytick_1">
     <g id="line2d_10">
      <defs>
       <path d="M 0 0 
L -3.5 0 
" id="m5f60cc61f0" style="stroke:#000000;stroke-width:0.8;"/>
      </defs>
      <g>
       <use style="stroke:#000000;stroke-width:0.8;" x="57.6" xlink:href="#m5f60cc61f0" y="307.584"/>
      </g>
     </g>
     <g id="text_11">
      <!-- 0.0 -->
      <g transform="translate(34.696875 311.383219)scale(0.1 -0.1)">
       <use xlink:href="#DejaVuSans-48"/>
       <use x="63.623047" xlink:href="#DejaVuSans-46"/>
       <use x="95.410156" xlink:href="#DejaVuSans-48"/>
      </g>
     </g>
    </g>
    <g id="ytick_2">
     <g id="line2d_11">
      <g>
       <use style="stroke:#000000;stroke-width:0.8;" x="57.6" xlink:href="#m5f60cc61f0" y="256.895109"/>
      </g>
     </g>
     <g id="text_12">
      <!-- 0.2 -->
      <g transform="translate(34.696875 260.694328)scale(0.1 -0.1)">
       <use xlink:href="#DejaVuSans-48"/>
       <use x="63.623047" xlink:href="#DejaVuSans-46"/>
       <use x="95.410156" xlink:href="#DejaVuSans-50"/>
      </g>
     </g>
    </g>
    <g id="ytick_3">
     <g id="line2d_12">
      <g>
       <use style="stroke:#000000;stroke-width:0.8;" x="57.6" xlink:href="#m5f60cc61f0" y="206.206219"/>
      </g>
     </g>
     <g id="text_13">
      <!-- 0.4 -->
      <defs>
       <path d="M 37.796875 64.3125 
L 12.890625 25.390625 
L 37.796875 25.390625 
z
M 35.203125 72.90625 
L 47.609375 72.90625 
L 47.609375 25.390625 
L 58.015625 25.390625 
L 58.015625 17.1875 
L 47.609375 17.1875 
L 47.609375 0 
L 37.796875 0 
L 37.796875 17.1875 
L 4.890625 17.1875 
L 4.890625 26.703125 
z
" id="DejaVuSans-52"/>
      </defs>
      <g transform="translate(34.696875 210.005438)scale(0.1 -0.1)">
       <use xlink:href="#DejaVuSans-48"/>
       <use x="63.623047" xlink:href="#DejaVuSans-46"/>
       <use x="95.410156" xlink:href="#DejaVuSans-52"/>
      </g>
     </g>
    </g>
    <g id="ytick_4">
     <g id="line2d_13">
      <g>
       <use style="stroke:#000000;stroke-width:0.8;" x="57.6" xlink:href="#m5f60cc61f0" y="155.517328"/>
      </g>
     </g>
     <g id="text_14">
      <!-- 0.6 -->
      <defs>
       <path d="M 33.015625 40.375 
Q 26.375 40.375 22.484375 35.828125 
Q 18.609375 31.296875 18.609375 23.390625 
Q 18.609375 15.53125 22.484375 10.953125 
Q 26.375 6.390625 33.015625 6.390625 
Q 39.65625 6.390625 43.53125 10.953125 
Q 47.40625 15.53125 47.40625 23.390625 
Q 47.40625 31.296875 43.53125 35.828125 
Q 39.65625 40.375 33.015625 40.375 
z
M 52.59375 71.296875 
L 52.59375 62.3125 
Q 48.875 64.0625 45.09375 64.984375 
Q 41.3125 65.921875 37.59375 65.921875 
Q 27.828125 65.921875 22.671875 59.328125 
Q 17.53125 52.734375 16.796875 39.40625 
Q 19.671875 43.65625 24.015625 45.921875 
Q 28.375 48.1875 33.59375 48.1875 
Q 44.578125 48.1875 50.953125 41.515625 
Q 57.328125 34.859375 57.328125 23.390625 
Q 57.328125 12.15625 50.6875 5.359375 
Q 44.046875 -1.421875 33.015625 -1.421875 
Q 20.359375 -1.421875 13.671875 8.265625 
Q 6.984375 17.96875 6.984375 36.375 
Q 6.984375 53.65625 15.1875 63.9375 
Q 23.390625 74.21875 37.203125 74.21875 
Q 40.921875 74.21875 44.703125 73.484375 
Q 48.484375 72.75 52.59375 71.296875 
z
" id="DejaVuSans-54"/>
      </defs>
      <g transform="translate(34.696875 159.316547)scale(0.1 -0.1)">
       <use xlink:href="#DejaVuSans-48"/>
       <use x="63.623047" xlink:href="#DejaVuSans-46"/>
       <use x="95.410156" xlink:href="#DejaVuSans-54"/>
      </g>
     </g>
    </g>
    <g id="ytick_5">
     <g id="line2d_14">
      <g>
       <use style="stroke:#000000;stroke-width:0.8;" x="57.6" xlink:href="#m5f60cc61f0" y="104.828438"/>
      </g>
     </g>
     <g id="text_15">
      <!-- 0.8 -->
      <defs>
       <path d="M 31.78125 34.625 
Q 24.75 34.625 20.71875 30.859375 
Q 16.703125 27.09375 16.703125 20.515625 
Q 16.703125 13.921875 20.71875 10.15625 
Q 24.75 6.390625 31.78125 6.390625 
Q 38.8125 6.390625 42.859375 10.171875 
Q 46.921875 13.96875 46.921875 20.515625 
Q 46.921875 27.09375 42.890625 30.859375 
Q 38.875 34.625 31.78125 34.625 
z
M 21.921875 38.8125 
Q 15.578125 40.375 12.03125 44.71875 
Q 8.5 49.078125 8.5 55.328125 
Q 8.5 64.0625 14.71875 69.140625 
Q 20.953125 74.21875 31.78125 74.21875 
Q 42.671875 74.21875 48.875 69.140625 
Q 55.078125 64.0625 55.078125 55.328125 
Q 55.078125 49.078125 51.53125 44.71875 
Q 48 40.375 41.703125 38.8125 
Q 48.828125 37.15625 52.796875 32.3125 
Q 56.78125 27.484375 56.78125 20.515625 
Q 56.78125 9.90625 50.3125 4.234375 
Q 43.84375 -1.421875 31.78125 -1.421875 
Q 19.734375 -1.421875 13.25 4.234375 
Q 6.78125 9.90625 6.78125 20.515625 
Q 6.78125 27.484375 10.78125 32.3125 
Q 14.796875 37.15625 21.921875 38.8125 
z
M 18.3125 54.390625 
Q 18.3125 48.734375 21.84375 45.5625 
Q 25.390625 42.390625 31.78125 42.390625 
Q 38.140625 42.390625 41.71875 45.5625 
Q 45.3125 48.734375 45.3125 54.390625 
Q 45.3125 60.0625 41.71875 63.234375 
Q 38.140625 66.40625 31.78125 66.40625 
Q 25.390625 66.40625 21.84375 63.234375 
Q 18.3125 60.0625 18.3125 54.390625 
z
" id="DejaVuSans-56"/>
      </defs>
      <g transform="translate(34.696875 108.627656)scale(0.1 -0.1)">
       <use xlink:href="#DejaVuSans-48"/>
       <use x="63.623047" xlink:href="#DejaVuSans-46"/>
       <use x="95.410156" xlink:href="#DejaVuSans-56"/>
      </g>
     </g>
    </g>
    <g id="ytick_6">
     <g id="line2d_15">
      <g>
       <use style="stroke:#000000;stroke-width:0.8;" x="57.6" xlink:href="#m5f60cc61f0" y="54.139547"/>
      </g>
     </g>
     <g id="text_16">
      <!-- 1.0 -->
      <g transform="translate(34.696875 57.938766)scale(0.1 -0.1)">
       <use xlink:href="#DejaVuSans-49"/>
       <use x="63.623047" xlink:href="#DejaVuSans-46"/>
       <use x="95.410156" xlink:href="#DejaVuSans-48"/>
      </g>
     </g>
    </g>
    <g id="text_17">
     <!-- DroppedJobs -->
     <defs>
      <path d="M 19.671875 64.796875 
L 19.671875 8.109375 
L 31.59375 8.109375 
Q 46.6875 8.109375 53.6875 14.9375 
Q 60.6875 21.78125 60.6875 36.53125 
Q 60.6875 51.171875 53.6875 57.984375 
Q 46.6875 64.796875 31.59375 64.796875 
z
M 9.8125 72.90625 
L 30.078125 72.90625 
Q 51.265625 72.90625 61.171875 64.09375 
Q 71.09375 55.28125 71.09375 36.53125 
Q 71.09375 17.671875 61.125 8.828125 
Q 51.171875 0 30.078125 0 
L 9.8125 0 
z
" id="DejaVuSans-68"/>
      <path d="M 30.609375 48.390625 
Q 23.390625 48.390625 19.1875 42.75 
Q 14.984375 37.109375 14.984375 27.296875 
Q 14.984375 17.484375 19.15625 11.84375 
Q 23.34375 6.203125 30.609375 6.203125 
Q 37.796875 6.203125 41.984375 11.859375 
Q 46.1875 17.53125 46.1875 27.296875 
Q 46.1875 37.015625 41.984375 42.703125 
Q 37.796875 48.390625 30.609375 48.390625 
z
M 30.609375 56 
Q 42.328125 56 49.015625 48.375 
Q 55.71875 40.765625 55.71875 27.296875 
Q 55.71875 13.875 49.015625 6.21875 
Q 42.328125 -1.421875 30.609375 -1.421875 
Q 18.84375 -1.421875 12.171875 6.21875 
Q 5.515625 13.875 5.515625 27.296875 
Q 5.515625 40.765625 12.171875 48.375 
Q 18.84375 56 30.609375 56 
z
" id="DejaVuSans-111"/>
      <path d="M 18.109375 8.203125 
L 18.109375 -20.796875 
L 9.078125 -20.796875 
L 9.078125 54.6875 
L 18.109375 54.6875 
L 18.109375 46.390625 
Q 20.953125 51.265625 25.265625 53.625 
Q 29.59375 56 35.59375 56 
Q 45.5625 56 51.78125 48.09375 
Q 58.015625 40.1875 58.015625 27.296875 
Q 58.015625 14.40625 51.78125 6.484375 
Q 45.5625 -1.421875 35.59375 -1.421875 
Q 29.59375 -1.421875 25.265625 0.953125 
Q 20.953125 3.328125 18.109375 8.203125 
z
M 48.6875 27.296875 
Q 48.6875 37.203125 44.609375 42.84375 
Q 40.53125 48.484375 33.40625 48.484375 
Q 26.265625 48.484375 22.1875 42.84375 
Q 18.109375 37.203125 18.109375 27.296875 
Q 18.109375 17.390625 22.1875 11.75 
Q 26.265625 6.109375 33.40625 6.109375 
Q 40.53125 6.109375 44.609375 11.75 
Q 48.6875 17.390625 48.6875 27.296875 
z
" id="DejaVuSans-112"/>
      <path d="M 56.203125 29.59375 
L 56.203125 25.203125 
L 14.890625 25.203125 
Q 15.484375 15.921875 20.484375 11.0625 
Q 25.484375 6.203125 34.421875 6.203125 
Q 39.59375 6.203125 44.453125 7.46875 
Q 49.3125 8.734375 54.109375 11.28125 
L 54.109375 2.78125 
Q 49.265625 0.734375 44.1875 -0.34375 
Q 39.109375 -1.421875 33.890625 -1.421875 
Q 20.796875 -1.421875 13.15625 6.1875 
Q 5.515625 13.8125 5.515625 26.8125 
Q 5.515625 40.234375 12.765625 48.109375 
Q 20.015625 56 32.328125 56 
Q 43.359375 56 49.78125 48.890625 
Q 56.203125 41.796875 56.203125 29.59375 
z
M 47.21875 32.234375 
Q 47.125 39.59375 43.09375 43.984375 
Q 39.0625 48.390625 32.421875 48.390625 
Q 24.90625 48.390625 20.390625 44.140625 
Q 15.875 39.890625 15.1875 32.171875 
z
" id="DejaVuSans-101"/>
      <path d="M 45.40625 46.390625 
L 45.40625 75.984375 
L 54.390625 75.984375 
L 54.390625 0 
L 45.40625 0 
L 45.40625 8.203125 
Q 42.578125 3.328125 38.25 0.953125 
Q 33.9375 -1.421875 27.875 -1.421875 
Q 17.96875 -1.421875 11.734375 6.484375 
Q 5.515625 14.40625 5.515625 27.296875 
Q 5.515625 40.1875 11.734375 48.09375 
Q 17.96875 56 27.875 56 
Q 33.9375 56 38.25 53.625 
Q 42.578125 51.265625 45.40625 46.390625 
z
M 14.796875 27.296875 
Q 14.796875 17.390625 18.875 11.75 
Q 22.953125 6.109375 30.078125 6.109375 
Q 37.203125 6.109375 41.296875 11.75 
Q 45.40625 17.390625 45.40625 27.296875 
Q 45.40625 37.203125 41.296875 42.84375 
Q 37.203125 48.484375 30.078125 48.484375 
Q 22.953125 48.484375 18.875 42.84375 
Q 14.796875 37.203125 14.796875 27.296875 
z
" id="DejaVuSans-100"/>
      <path d="M 9.8125 72.90625 
L 19.671875 72.90625 
L 19.671875 5.078125 
Q 19.671875 -8.109375 14.671875 -14.0625 
Q 9.671875 -20.015625 -1.421875 -20.015625 
L -5.171875 -20.015625 
L -5.171875 -11.71875 
L -2.09375 -11.71875 
Q 4.4375 -11.71875 7.125 -8.046875 
Q 9.8125 -4.390625 9.8125 5.078125 
z
" id="DejaVuSans-74"/>
      <path d="M 48.6875 27.296875 
Q 48.6875 37.203125 44.609375 42.84375 
Q 40.53125 48.484375 33.40625 48.484375 
Q 26.265625 48.484375 22.1875 42.84375 
Q 18.109375 37.203125 18.109375 27.296875 
Q 18.109375 17.390625 22.1875 11.75 
Q 26.265625 6.109375 33.40625 6.109375 
Q 40.53125 6.109375 44.609375 11.75 
Q 48.6875 17.390625 48.6875 27.296875 
z
M 18.109375 46.390625 
Q 20.953125 51.265625 25.265625 53.625 
Q 29.59375 56 35.59375 56 
Q 45.5625 56 51.78125 48.09375 
Q 58.015625 40.1875 58.015625 27.296875 
Q 58.015625 14.40625 51.78125 6.484375 
Q 45.5625 -1.421875 35.59375 -1.421875 
Q 29.59375 -1.421875 25.265625 0.953125 
Q 20.953125 3.328125 18.109375 8.203125 
L 18.109375 0 
L 9.078125 0 
L 9.078125 75.984375 
L 18.109375 75.984375 
z
" id="DejaVuSans-98"/>
      <path d="M 44.28125 53.078125 
L 44.28125 44.578125 
Q 40.484375 46.53125 36.375 47.5 
Q 32.28125 48.484375 27.875 48.484375 
Q 21.1875 48.484375 17.84375 46.4375 
Q 14.5 44.390625 14.5 40.28125 
Q 14.5 37.15625 16.890625 35.375 
Q 19.28125 33.59375 26.515625 31.984375 
L 29.59375 31.296875 
Q 39.15625 29.25 43.1875 25.515625 
Q 47.21875 21.78125 47.21875 15.09375 
Q 47.21875 7.46875 41.1875 3.015625 
Q 35.15625 -1.421875 24.609375 -1.421875 
Q 20.21875 -1.421875 15.453125 -0.5625 
Q 10.6875 0.296875 5.421875 2 
L 5.421875 11.28125 
Q 10.40625 8.6875 15.234375 7.390625 
Q 20.0625 6.109375 24.8125 6.109375 
Q 31.15625 6.109375 34.5625 8.28125 
Q 37.984375 10.453125 37.984375 14.40625 
Q 37.984375 18.0625 35.515625 20.015625 
Q 33.0625 21.96875 24.703125 23.78125 
L 21.578125 24.515625 
Q 13.234375 26.265625 9.515625 29.90625 
Q 5.8125 33.546875 5.8125 39.890625 
Q 5.8125 47.609375 11.28125 51.796875 
Q 16.75 56 26.8125 56 
Q 31.78125 56 36.171875 55.265625 
Q 40.578125 54.546875 44.28125 53.078125 
z
" id="DejaVuSans-115"/>
     </defs>
     <g transform="translate(28.617187 206.403781)rotate(-90)scale(0.1 -0.1)">
      <use xlink:href="#DejaVuSans-68"/>
      <use x="77.001953" xlink:href="#DejaVuSans-114"/>
      <use x="118.083984" xlink:href="#DejaVuSans-111"/>
      <use x="179.265625" xlink:href="#DejaVuSans-112"/>
      <use x="242.742188" xlink:href="#DejaVuSans-112"/>
      <use x="306.21875" xlink:href="#DejaVuSans-101"/>
      <use x="367.742188" xlink:href="#DejaVuSans-100"/>
      <use x="431.21875" xlink:href="#DejaVuSans-74"/>
      <use x="460.710938" xlink:href="#DejaVuSans-111"/>
      <use x="521.892578" xlink:href="#DejaVuSans-98"/>
      <use x="585.369141" xlink:href="#DejaVuSans-115"/>
     </g>
    </g>
   </g>
   <g id="line2d_16">
    <path clip-path="url(#pc8859f549d)" d="M 76.768879 300.853392 
L 395.551121 300.853392 
" style="fill:none;stroke:#ff0000;stroke-dasharray:5.55,2.4;stroke-dashoffset:0;stroke-width:1.5;"/>
   </g>
   <g id="line2d_17">
    <path clip-path="url(#pc8859f549d)" d="M 76.768879 302.969742 
L 395.551121 302.969742 
" style="fill:none;stroke:#ff0000;stroke-dasharray:5.55,2.4;stroke-dashoffset:0;stroke-width:1.5;"/>
   </g>
   <g id="line2d_18">
    <path clip-path="url(#pc8859f549d)" d="M 76.768879 303.500996 
L 395.551121 303.500996 
" style="fill:none;stroke:#ff0000;stroke-dasharray:5.55,2.4;stroke-dashoffset:0;stroke-width:1.5;"/>
   </g>
   <g id="line2d_19">
    <path clip-path="url(#pc8859f549d)" d="M 76.768879 297.749102 
L 395.551121 297.749102 
" style="fill:none;stroke:#ff0000;stroke-dasharray:5.55,2.4;stroke-dashoffset:0;stroke-width:1.5;"/>
   </g>
   <g id="line2d_20">
    <path clip-path="url(#pc8859f549d)" d="M 76.768879 307.584 
L 395.551121 307.584 
" style="fill:none;stroke:#ff0000;stroke-dasharray:5.55,2.4;stroke-dashoffset:0;stroke-width:1.5;"/>
   </g>
   <g id="line2d_21">
    <path clip-path="url(#pc8859f549d)" d="M 76.768879 307.584 
L 395.551121 307.584 
" style="fill:none;stroke:#ff0000;stroke-dasharray:5.55,2.4;stroke-dashoffset:0;stroke-width:1.5;"/>
   </g>
   <g id="line2d_22">
    <path clip-path="url(#pc8859f549d)" d="M 76.768879 307.57615 
L 395.551121 307.57615 
" style="fill:none;stroke:#ff0000;stroke-dasharray:5.55,2.4;stroke-dashoffset:0;stroke-width:1.5;"/>
   </g>
   <g id="line2d_23">
    <path clip-path="url(#pc8859f549d)" d="M 76.768879 307.204793 
L 395.551121 307.204793 
" style="fill:none;stroke:#ff0000;stroke-dasharray:5.55,2.4;stroke-dashoffset:0;stroke-width:1.5;"/>
   </g>
   <g id="patch_159">
    <path d="M 57.6 307.584 
L 57.6 41.472 
" style="fill:none;stroke:#000000;stroke-linecap:square;stroke-linejoin:miter;stroke-width:0.8;"/>
   </g>
   <g id="patch_160">
    <path d="M 414.72 307.584 
L 414.72 41.472 
" style="fill:none;stroke:#000000;stroke-linecap:square;stroke-linejoin:miter;stroke-width:0.8;"/>
   </g>
   <g id="patch_161">
    <path d="M 57.6 307.584 
L 414.72 307.584 
" style="fill:none;stroke:#000000;stroke-linecap:square;stroke-linejoin:miter;stroke-width:0.8;"/>
   </g>
   <g id="patch_162">
    <path d="M 57.6 41.472 
L 414.72 41.472 
" style="fill:none;stroke:#000000;stroke-linecap:square;stroke-linejoin:miter;stroke-width:0.8;"/>
   </g>
   <g id="text_18">
    <!-- DroppedJobs NoLB VS SeqForw Mul001 Rho0.9 -->
    <defs>
     <path id="DejaVuSans-32"/>
     <path d="M 9.8125 72.90625 
L 23.09375 72.90625 
L 55.421875 11.921875 
L 55.421875 72.90625 
L 64.984375 72.90625 
L 64.984375 0 
L 51.703125 0 
L 19.390625 60.984375 
L 19.390625 0 
L 9.8125 0 
z
" id="DejaVuSans-78"/>
     <path d="M 9.8125 72.90625 
L 19.671875 72.90625 
L 19.671875 8.296875 
L 55.171875 8.296875 
L 55.171875 0 
L 9.8125 0 
z
" id="DejaVuSans-76"/>
     <path d="M 19.671875 34.8125 
L 19.671875 8.109375 
L 35.5 8.109375 
Q 43.453125 8.109375 47.28125 11.40625 
Q 51.125 14.703125 51.125 21.484375 
Q 51.125 28.328125 47.28125 31.5625 
Q 43.453125 34.8125 35.5 34.8125 
z
M 19.671875 64.796875 
L 19.671875 42.828125 
L 34.28125 42.828125 
Q 41.5 42.828125 45.03125 45.53125 
Q 48.578125 48.25 48.578125 53.8125 
Q 48.578125 59.328125 45.03125 62.0625 
Q 41.5 64.796875 34.28125 64.796875 
z
M 9.8125 72.90625 
L 35.015625 72.90625 
Q 46.296875 72.90625 52.390625 68.21875 
Q 58.5 63.53125 58.5 54.890625 
Q 58.5 48.1875 55.375 44.234375 
Q 52.25 40.28125 46.1875 39.3125 
Q 53.46875 37.75 57.5 32.78125 
Q 61.53125 27.828125 61.53125 20.40625 
Q 61.53125 10.640625 54.890625 5.3125 
Q 48.25 0 35.984375 0 
L 9.8125 0 
z
" id="DejaVuSans-66"/>
     <path d="M 28.609375 0 
L 0.78125 72.90625 
L 11.078125 72.90625 
L 34.1875 11.53125 
L 57.328125 72.90625 
L 67.578125 72.90625 
L 39.796875 0 
z
" id="DejaVuSans-86"/>
     <path d="M 53.515625 70.515625 
L 53.515625 60.890625 
Q 47.90625 63.578125 42.921875 64.890625 
Q 37.9375 66.21875 33.296875 66.21875 
Q 25.25 66.21875 20.875 63.09375 
Q 16.5 59.96875 16.5 54.203125 
Q 16.5 49.359375 19.40625 46.890625 
Q 22.3125 44.4375 30.421875 42.921875 
L 36.375 41.703125 
Q 47.40625 39.59375 52.65625 34.296875 
Q 57.90625 29 57.90625 20.125 
Q 57.90625 9.515625 50.796875 4.046875 
Q 43.703125 -1.421875 29.984375 -1.421875 
Q 24.8125 -1.421875 18.96875 -0.25 
Q 13.140625 0.921875 6.890625 3.21875 
L 6.890625 13.375 
Q 12.890625 10.015625 18.65625 8.296875 
Q 24.421875 6.59375 29.984375 6.59375 
Q 38.421875 6.59375 43.015625 9.90625 
Q 47.609375 13.234375 47.609375 19.390625 
Q 47.609375 24.75 44.3125 27.78125 
Q 41.015625 30.8125 33.5 32.328125 
L 27.484375 33.5 
Q 16.453125 35.6875 11.515625 40.375 
Q 6.59375 45.0625 6.59375 53.421875 
Q 6.59375 63.09375 13.40625 68.65625 
Q 20.21875 74.21875 32.171875 74.21875 
Q 37.3125 74.21875 42.625 73.28125 
Q 47.953125 72.359375 53.515625 70.515625 
z
" id="DejaVuSans-83"/>
     <path d="M 14.796875 27.296875 
Q 14.796875 17.390625 18.875 11.75 
Q 22.953125 6.109375 30.078125 6.109375 
Q 37.203125 6.109375 41.296875 11.75 
Q 45.40625 17.390625 45.40625 27.296875 
Q 45.40625 37.203125 41.296875 42.84375 
Q 37.203125 48.484375 30.078125 48.484375 
Q 22.953125 48.484375 18.875 42.84375 
Q 14.796875 37.203125 14.796875 27.296875 
z
M 45.40625 8.203125 
Q 42.578125 3.328125 38.25 0.953125 
Q 33.9375 -1.421875 27.875 -1.421875 
Q 17.96875 -1.421875 11.734375 6.484375 
Q 5.515625 14.40625 5.515625 27.296875 
Q 5.515625 40.1875 11.734375 48.09375 
Q 17.96875 56 27.875 56 
Q 33.9375 56 38.25 53.625 
Q 42.578125 51.265625 45.40625 46.390625 
L 45.40625 54.6875 
L 54.390625 54.6875 
L 54.390625 -20.796875 
L 45.40625 -20.796875 
z
" id="DejaVuSans-113"/>
     <path d="M 9.8125 72.90625 
L 51.703125 72.90625 
L 51.703125 64.59375 
L 19.671875 64.59375 
L 19.671875 43.109375 
L 48.578125 43.109375 
L 48.578125 34.8125 
L 19.671875 34.8125 
L 19.671875 0 
L 9.8125 0 
z
" id="DejaVuSans-70"/>
     <path d="M 4.203125 54.6875 
L 13.1875 54.6875 
L 24.421875 12.015625 
L 35.59375 54.6875 
L 46.1875 54.6875 
L 57.421875 12.015625 
L 68.609375 54.6875 
L 77.59375 54.6875 
L 63.28125 0 
L 52.6875 0 
L 40.921875 44.828125 
L 29.109375 0 
L 18.5 0 
z
" id="DejaVuSans-119"/>
     <path d="M 9.8125 72.90625 
L 24.515625 72.90625 
L 43.109375 23.296875 
L 61.8125 72.90625 
L 76.515625 72.90625 
L 76.515625 0 
L 66.890625 0 
L 66.890625 64.015625 
L 48.09375 14.015625 
L 38.1875 14.015625 
L 19.390625 64.015625 
L 19.390625 0 
L 9.8125 0 
z
" id="DejaVuSans-77"/>
     <path d="M 8.5 21.578125 
L 8.5 54.6875 
L 17.484375 54.6875 
L 17.484375 21.921875 
Q 17.484375 14.15625 20.5 10.265625 
Q 23.53125 6.390625 29.59375 6.390625 
Q 36.859375 6.390625 41.078125 11.03125 
Q 45.3125 15.671875 45.3125 23.6875 
L 45.3125 54.6875 
L 54.296875 54.6875 
L 54.296875 0 
L 45.3125 0 
L 45.3125 8.40625 
Q 42.046875 3.421875 37.71875 1 
Q 33.40625 -1.421875 27.6875 -1.421875 
Q 18.265625 -1.421875 13.375 4.4375 
Q 8.5 10.296875 8.5 21.578125 
z
M 31.109375 56 
z
" id="DejaVuSans-117"/>
     <path d="M 9.421875 75.984375 
L 18.40625 75.984375 
L 18.40625 0 
L 9.421875 0 
z
" id="DejaVuSans-108"/>
     <path d="M 44.390625 34.1875 
Q 47.5625 33.109375 50.5625 29.59375 
Q 53.5625 26.078125 56.59375 19.921875 
L 66.609375 0 
L 56 0 
L 46.6875 18.703125 
Q 43.0625 26.03125 39.671875 28.421875 
Q 36.28125 30.8125 30.421875 30.8125 
L 19.671875 30.8125 
L 19.671875 0 
L 9.8125 0 
L 9.8125 72.90625 
L 32.078125 72.90625 
Q 44.578125 72.90625 50.734375 67.671875 
Q 56.890625 62.453125 56.890625 51.90625 
Q 56.890625 45.015625 53.6875 40.46875 
Q 50.484375 35.9375 44.390625 34.1875 
z
M 19.671875 64.796875 
L 19.671875 38.921875 
L 32.078125 38.921875 
Q 39.203125 38.921875 42.84375 42.21875 
Q 46.484375 45.515625 46.484375 51.90625 
Q 46.484375 58.296875 42.84375 61.546875 
Q 39.203125 64.796875 32.078125 64.796875 
z
" id="DejaVuSans-82"/>
     <path d="M 10.984375 1.515625 
L 10.984375 10.5 
Q 14.703125 8.734375 18.5 7.8125 
Q 22.3125 6.890625 25.984375 6.890625 
Q 35.75 6.890625 40.890625 13.453125 
Q 46.046875 20.015625 46.78125 33.40625 
Q 43.953125 29.203125 39.59375 26.953125 
Q 35.25 24.703125 29.984375 24.703125 
Q 19.046875 24.703125 12.671875 31.3125 
Q 6.296875 37.9375 6.296875 49.421875 
Q 6.296875 60.640625 12.9375 67.421875 
Q 19.578125 74.21875 30.609375 74.21875 
Q 43.265625 74.21875 49.921875 64.515625 
Q 56.59375 54.828125 56.59375 36.375 
Q 56.59375 19.140625 48.40625 8.859375 
Q 40.234375 -1.421875 26.421875 -1.421875 
Q 22.703125 -1.421875 18.890625 -0.6875 
Q 15.09375 0.046875 10.984375 1.515625 
z
M 30.609375 32.421875 
Q 37.25 32.421875 41.125 36.953125 
Q 45.015625 41.5 45.015625 49.421875 
Q 45.015625 57.28125 41.125 61.84375 
Q 37.25 66.40625 30.609375 66.40625 
Q 23.96875 66.40625 20.09375 61.84375 
Q 16.21875 57.28125 16.21875 49.421875 
Q 16.21875 41.5 20.09375 36.953125 
Q 23.96875 32.421875 30.609375 32.421875 
z
" id="DejaVuSans-57"/>
    </defs>
    <g transform="translate(95.755313 35.472)scale(0.12 -0.12)">
     <use xlink:href="#DejaVuSans-68"/>
     <use x="77.001953" xlink:href="#DejaVuSans-114"/>
     <use x="118.083984" xlink:href="#DejaVuSans-111"/>
     <use x="179.265625" xlink:href="#DejaVuSans-112"/>
     <use x="242.742188" xlink:href="#DejaVuSans-112"/>
     <use x="306.21875" xlink:href="#DejaVuSans-101"/>
     <use x="367.742188" xlink:href="#DejaVuSans-100"/>
     <use x="431.21875" xlink:href="#DejaVuSans-74"/>
     <use x="460.710938" xlink:href="#DejaVuSans-111"/>
     <use x="521.892578" xlink:href="#DejaVuSans-98"/>
     <use x="585.369141" xlink:href="#DejaVuSans-115"/>
     <use x="637.46875" xlink:href="#DejaVuSans-32"/>
     <use x="669.255859" xlink:href="#DejaVuSans-78"/>
     <use x="744.060547" xlink:href="#DejaVuSans-111"/>
     <use x="805.242188" xlink:href="#DejaVuSans-76"/>
     <use x="860.955078" xlink:href="#DejaVuSans-66"/>
     <use x="929.558594" xlink:href="#DejaVuSans-32"/>
     <use x="961.345703" xlink:href="#DejaVuSans-86"/>
     <use x="1029.753906" xlink:href="#DejaVuSans-83"/>
     <use x="1093.230469" xlink:href="#DejaVuSans-32"/>
     <use x="1125.017578" xlink:href="#DejaVuSans-83"/>
     <use x="1188.494141" xlink:href="#DejaVuSans-101"/>
     <use x="1250.017578" xlink:href="#DejaVuSans-113"/>
     <use x="1313.494141" xlink:href="#DejaVuSans-70"/>
     <use x="1370.966797" xlink:href="#DejaVuSans-111"/>
     <use x="1432.148438" xlink:href="#DejaVuSans-114"/>
     <use x="1473.261719" xlink:href="#DejaVuSans-119"/>
     <use x="1555.048828" xlink:href="#DejaVuSans-32"/>
     <use x="1586.835938" xlink:href="#DejaVuSans-77"/>
     <use x="1673.115234" xlink:href="#DejaVuSans-117"/>
     <use x="1736.494141" xlink:href="#DejaVuSans-108"/>
     <use x="1764.277344" xlink:href="#DejaVuSans-48"/>
     <use x="1827.900391" xlink:href="#DejaVuSans-48"/>
     <use x="1891.523438" xlink:href="#DejaVuSans-49"/>
     <use x="1955.146484" xlink:href="#DejaVuSans-32"/>
     <use x="1986.933594" xlink:href="#DejaVuSans-82"/>
     <use x="2056.416016" xlink:href="#DejaVuSans-104"/>
     <use x="2119.794922" xlink:href="#DejaVuSans-111"/>
     <use x="2180.976562" xlink:href="#DejaVuSans-48"/>
     <use x="2244.599609" xlink:href="#DejaVuSans-46"/>
     <use x="2276.386719" xlink:href="#DejaVuSans-57"/>
    </g>
   </g>
   <g id="legend_1">
    <g id="patch_163">
     <path d="M 281.696563 284.322 
L 407.72 284.322 
Q 409.72 284.322 409.72 282.322 
L 409.72 48.472 
Q 409.72 46.472 407.72 46.472 
L 281.696563 46.472 
Q 279.696563 46.472 279.696563 48.472 
L 279.696563 282.322 
Q 279.696563 284.322 281.696563 284.322 
z
" style="fill:#ffffff;opacity:0.8;stroke:#cccccc;stroke-linejoin:miter;"/>
    </g>
    <g id="line2d_24">
     <path d="M 283.696563 54.570437 
L 303.696563 54.570437 
" style="fill:none;stroke:#ff0000;stroke-dasharray:5.55,2.4;stroke-dashoffset:0;stroke-width:1.5;"/>
    </g>
    <g id="line2d_25"/>
    <g id="text_19">
     <!-- NoLB -->
     <g transform="translate(311.696563 58.070437)scale(0.1 -0.1)">
      <use xlink:href="#DejaVuSans-78"/>
      <use x="74.804688" xlink:href="#DejaVuSans-111"/>
      <use x="135.986328" xlink:href="#DejaVuSans-76"/>
      <use x="191.699219" xlink:href="#DejaVuSans-66"/>
     </g>
    </g>
    <g id="line2d_26">
     <path d="M 283.696563 69.248562 
L 303.696563 69.248562 
" style="fill:none;stroke:#ff0000;stroke-dasharray:5.55,2.4;stroke-dashoffset:0;stroke-width:1.5;"/>
    </g>
    <g id="line2d_27"/>
    <g id="text_20">
     <!-- NoLB -->
     <g transform="translate(311.696563 72.748562)scale(0.1 -0.1)">
      <use xlink:href="#DejaVuSans-78"/>
      <use x="74.804688" xlink:href="#DejaVuSans-111"/>
      <use x="135.986328" xlink:href="#DejaVuSans-76"/>
      <use x="191.699219" xlink:href="#DejaVuSans-66"/>
     </g>
    </g>
    <g id="line2d_28">
     <path d="M 283.696563 83.926688 
L 303.696563 83.926688 
" style="fill:none;stroke:#ff0000;stroke-dasharray:5.55,2.4;stroke-dashoffset:0;stroke-width:1.5;"/>
    </g>
    <g id="line2d_29"/>
    <g id="text_21">
     <!-- NoLB -->
     <g transform="translate(311.696563 87.426688)scale(0.1 -0.1)">
      <use xlink:href="#DejaVuSans-78"/>
      <use x="74.804688" xlink:href="#DejaVuSans-111"/>
      <use x="135.986328" xlink:href="#DejaVuSans-76"/>
      <use x="191.699219" xlink:href="#DejaVuSans-66"/>
     </g>
    </g>
    <g id="line2d_30">
     <path d="M 283.696563 98.604812 
L 303.696563 98.604812 
" style="fill:none;stroke:#ff0000;stroke-dasharray:5.55,2.4;stroke-dashoffset:0;stroke-width:1.5;"/>
    </g>
    <g id="line2d_31"/>
    <g id="text_22">
     <!-- NoLB -->
     <g transform="translate(311.696563 102.104812)scale(0.1 -0.1)">
      <use xlink:href="#DejaVuSans-78"/>
      <use x="74.804688" xlink:href="#DejaVuSans-111"/>
      <use x="135.986328" xlink:href="#DejaVuSans-76"/>
      <use x="191.699219" xlink:href="#DejaVuSans-66"/>
     </g>
    </g>
    <g id="line2d_32">
     <path d="M 283.696563 113.282937 
L 303.696563 113.282937 
" style="fill:none;stroke:#ff0000;stroke-dasharray:5.55,2.4;stroke-dashoffset:0;stroke-width:1.5;"/>
    </g>
    <g id="line2d_33"/>
    <g id="text_23">
     <!-- NoLB -->
     <g transform="translate(311.696563 116.782937)scale(0.1 -0.1)">
      <use xlink:href="#DejaVuSans-78"/>
      <use x="74.804688" xlink:href="#DejaVuSans-111"/>
      <use x="135.986328" xlink:href="#DejaVuSans-76"/>
      <use x="191.699219" xlink:href="#DejaVuSans-66"/>
     </g>
    </g>
    <g id="line2d_34">
     <path d="M 283.696563 127.961062 
L 303.696563 127.961062 
" style="fill:none;stroke:#ff0000;stroke-dasharray:5.55,2.4;stroke-dashoffset:0;stroke-width:1.5;"/>
    </g>
    <g id="line2d_35"/>
    <g id="text_24">
     <!-- NoLB -->
     <g transform="translate(311.696563 131.461062)scale(0.1 -0.1)">
      <use xlink:href="#DejaVuSans-78"/>
      <use x="74.804688" xlink:href="#DejaVuSans-111"/>
      <use x="135.986328" xlink:href="#DejaVuSans-76"/>
      <use x="191.699219" xlink:href="#DejaVuSans-66"/>
     </g>
    </g>
    <g id="line2d_36">
     <path d="M 283.696563 142.639187 
L 303.696563 142.639187 
" style="fill:none;stroke:#ff0000;stroke-dasharray:5.55,2.4;stroke-dashoffset:0;stroke-width:1.5;"/>
    </g>
    <g id="line2d_37"/>
    <g id="text_25">
     <!-- NoLB -->
     <g transform="translate(311.696563 146.139187)scale(0.1 -0.1)">
      <use xlink:href="#DejaVuSans-78"/>
      <use x="74.804688" xlink:href="#DejaVuSans-111"/>
      <use x="135.986328" xlink:href="#DejaVuSans-76"/>
      <use x="191.699219" xlink:href="#DejaVuSans-66"/>
     </g>
    </g>
    <g id="line2d_38">
     <path d="M 283.696563 157.317312 
L 303.696563 157.317312 
" style="fill:none;stroke:#ff0000;stroke-dasharray:5.55,2.4;stroke-dashoffset:0;stroke-width:1.5;"/>
    </g>
    <g id="line2d_39"/>
    <g id="text_26">
     <!-- NoLB -->
     <g transform="translate(311.696563 160.817312)scale(0.1 -0.1)">
      <use xlink:href="#DejaVuSans-78"/>
      <use x="74.804688" xlink:href="#DejaVuSans-111"/>
      <use x="135.986328" xlink:href="#DejaVuSans-76"/>
      <use x="191.699219" xlink:href="#DejaVuSans-66"/>
     </g>
    </g>
    <g id="patch_164">
     <path d="M 283.696563 175.495437 
L 303.696563 175.495437 
L 303.696563 168.495437 
L 283.696563 168.495437 
z
" style="fill:#1f77b4;"/>
    </g>
    <g id="text_27">
     <!-- SequentialForward -->
     <defs>
      <path d="M 54.890625 33.015625 
L 54.890625 0 
L 45.90625 0 
L 45.90625 32.71875 
Q 45.90625 40.484375 42.875 44.328125 
Q 39.84375 48.1875 33.796875 48.1875 
Q 26.515625 48.1875 22.3125 43.546875 
Q 18.109375 38.921875 18.109375 30.90625 
L 18.109375 0 
L 9.078125 0 
L 9.078125 54.6875 
L 18.109375 54.6875 
L 18.109375 46.1875 
Q 21.34375 51.125 25.703125 53.5625 
Q 30.078125 56 35.796875 56 
Q 45.21875 56 50.046875 50.171875 
Q 54.890625 44.34375 54.890625 33.015625 
z
" id="DejaVuSans-110"/>
      <path d="M 18.3125 70.21875 
L 18.3125 54.6875 
L 36.8125 54.6875 
L 36.8125 47.703125 
L 18.3125 47.703125 
L 18.3125 18.015625 
Q 18.3125 11.328125 20.140625 9.421875 
Q 21.96875 7.515625 27.59375 7.515625 
L 36.8125 7.515625 
L 36.8125 0 
L 27.59375 0 
Q 17.1875 0 13.234375 3.875 
Q 9.28125 7.765625 9.28125 18.015625 
L 9.28125 47.703125 
L 2.6875 47.703125 
L 2.6875 54.6875 
L 9.28125 54.6875 
L 9.28125 70.21875 
z
" id="DejaVuSans-116"/>
      <path d="M 9.421875 54.6875 
L 18.40625 54.6875 
L 18.40625 0 
L 9.421875 0 
z
M 9.421875 75.984375 
L 18.40625 75.984375 
L 18.40625 64.59375 
L 9.421875 64.59375 
z
" id="DejaVuSans-105"/>
      <path d="M 34.28125 27.484375 
Q 23.390625 27.484375 19.1875 25 
Q 14.984375 22.515625 14.984375 16.5 
Q 14.984375 11.71875 18.140625 8.90625 
Q 21.296875 6.109375 26.703125 6.109375 
Q 34.1875 6.109375 38.703125 11.40625 
Q 43.21875 16.703125 43.21875 25.484375 
L 43.21875 27.484375 
z
M 52.203125 31.203125 
L 52.203125 0 
L 43.21875 0 
L 43.21875 8.296875 
Q 40.140625 3.328125 35.546875 0.953125 
Q 30.953125 -1.421875 24.3125 -1.421875 
Q 15.921875 -1.421875 10.953125 3.296875 
Q 6 8.015625 6 15.921875 
Q 6 25.140625 12.171875 29.828125 
Q 18.359375 34.515625 30.609375 34.515625 
L 43.21875 34.515625 
L 43.21875 35.40625 
Q 43.21875 41.609375 39.140625 45 
Q 35.0625 48.390625 27.6875 48.390625 
Q 23 48.390625 18.546875 47.265625 
Q 14.109375 46.140625 10.015625 43.890625 
L 10.015625 52.203125 
Q 14.9375 54.109375 19.578125 55.046875 
Q 24.21875 56 28.609375 56 
Q 40.484375 56 46.34375 49.84375 
Q 52.203125 43.703125 52.203125 31.203125 
z
" id="DejaVuSans-97"/>
     </defs>
     <g transform="translate(311.696563 175.495437)scale(0.1 -0.1)">
      <use xlink:href="#DejaVuSans-83"/>
      <use x="63.476562" xlink:href="#DejaVuSans-101"/>
      <use x="125" xlink:href="#DejaVuSans-113"/>
      <use x="188.476562" xlink:href="#DejaVuSans-117"/>
      <use x="251.855469" xlink:href="#DejaVuSans-101"/>
      <use x="313.378906" xlink:href="#DejaVuSans-110"/>
      <use x="376.757812" xlink:href="#DejaVuSans-116"/>
      <use x="415.966797" xlink:href="#DejaVuSans-105"/>
      <use x="443.75" xlink:href="#DejaVuSans-97"/>
      <use x="505.029297" xlink:href="#DejaVuSans-108"/>
      <use x="532.8125" xlink:href="#DejaVuSans-70"/>
      <use x="590.285156" xlink:href="#DejaVuSans-111"/>
      <use x="651.466797" xlink:href="#DejaVuSans-114"/>
      <use x="692.580078" xlink:href="#DejaVuSans-119"/>
      <use x="774.367188" xlink:href="#DejaVuSans-97"/>
      <use x="835.646484" xlink:href="#DejaVuSans-114"/>
      <use x="876.744141" xlink:href="#DejaVuSans-100"/>
     </g>
    </g>
    <g id="patch_165">
     <path d="M 283.696563 190.173562 
L 303.696563 190.173562 
L 303.696563 183.173562 
L 283.696563 183.173562 
z
" style="fill:#ff7f0e;"/>
    </g>
    <g id="text_28">
     <!-- SequentialForward -->
     <g transform="translate(311.696563 190.173562)scale(0.1 -0.1)">
      <use xlink:href="#DejaVuSans-83"/>
      <use x="63.476562" xlink:href="#DejaVuSans-101"/>
      <use x="125" xlink:href="#DejaVuSans-113"/>
      <use x="188.476562" xlink:href="#DejaVuSans-117"/>
      <use x="251.855469" xlink:href="#DejaVuSans-101"/>
      <use x="313.378906" xlink:href="#DejaVuSans-110"/>
      <use x="376.757812" xlink:href="#DejaVuSans-116"/>
      <use x="415.966797" xlink:href="#DejaVuSans-105"/>
      <use x="443.75" xlink:href="#DejaVuSans-97"/>
      <use x="505.029297" xlink:href="#DejaVuSans-108"/>
      <use x="532.8125" xlink:href="#DejaVuSans-70"/>
      <use x="590.285156" xlink:href="#DejaVuSans-111"/>
      <use x="651.466797" xlink:href="#DejaVuSans-114"/>
      <use x="692.580078" xlink:href="#DejaVuSans-119"/>
      <use x="774.367188" xlink:href="#DejaVuSans-97"/>
      <use x="835.646484" xlink:href="#DejaVuSans-114"/>
      <use x="876.744141" xlink:href="#DejaVuSans-100"/>
     </g>
    </g>
    <g id="patch_166">
     <path d="M 283.696563 204.851687 
L 303.696563 204.851687 
L 303.696563 197.851687 
L 283.696563 197.851687 
z
" style="fill:#2ca02c;"/>
    </g>
    <g id="text_29">
     <!-- SequentialForward -->
     <g transform="translate(311.696563 204.851687)scale(0.1 -0.1)">
      <use xlink:href="#DejaVuSans-83"/>
      <use x="63.476562" xlink:href="#DejaVuSans-101"/>
      <use x="125" xlink:href="#DejaVuSans-113"/>
      <use x="188.476562" xlink:href="#DejaVuSans-117"/>
      <use x="251.855469" xlink:href="#DejaVuSans-101"/>
      <use x="313.378906" xlink:href="#DejaVuSans-110"/>
      <use x="376.757812" xlink:href="#DejaVuSans-116"/>
      <use x="415.966797" xlink:href="#DejaVuSans-105"/>
      <use x="443.75" xlink:href="#DejaVuSans-97"/>
      <use x="505.029297" xlink:href="#DejaVuSans-108"/>
      <use x="532.8125" xlink:href="#DejaVuSans-70"/>
      <use x="590.285156" xlink:href="#DejaVuSans-111"/>
      <use x="651.466797" xlink:href="#DejaVuSans-114"/>
      <use x="692.580078" xlink:href="#DejaVuSans-119"/>
      <use x="774.367188" xlink:href="#DejaVuSans-97"/>
      <use x="835.646484" xlink:href="#DejaVuSans-114"/>
      <use x="876.744141" xlink:href="#DejaVuSans-100"/>
     </g>
    </g>
    <g id="patch_167">
     <path d="M 283.696563 219.529812 
L 303.696563 219.529812 
L 303.696563 212.529812 
L 283.696563 212.529812 
z
" style="fill:#d62728;"/>
    </g>
    <g id="text_30">
     <!-- SequentialForward -->
     <g transform="translate(311.696563 219.529812)scale(0.1 -0.1)">
      <use xlink:href="#DejaVuSans-83"/>
      <use x="63.476562" xlink:href="#DejaVuSans-101"/>
      <use x="125" xlink:href="#DejaVuSans-113"/>
      <use x="188.476562" xlink:href="#DejaVuSans-117"/>
      <use x="251.855469" xlink:href="#DejaVuSans-101"/>
      <use x="313.378906" xlink:href="#DejaVuSans-110"/>
      <use x="376.757812" xlink:href="#DejaVuSans-116"/>
      <use x="415.966797" xlink:href="#DejaVuSans-105"/>
      <use x="443.75" xlink:href="#DejaVuSans-97"/>
      <use x="505.029297" xlink:href="#DejaVuSans-108"/>
      <use x="532.8125" xlink:href="#DejaVuSans-70"/>
      <use x="590.285156" xlink:href="#DejaVuSans-111"/>
      <use x="651.466797" xlink:href="#DejaVuSans-114"/>
      <use x="692.580078" xlink:href="#DejaVuSans-119"/>
      <use x="774.367188" xlink:href="#DejaVuSans-97"/>
      <use x="835.646484" xlink:href="#DejaVuSans-114"/>
      <use x="876.744141" xlink:href="#DejaVuSans-100"/>
     </g>
    </g>
    <g id="patch_168">
     <path d="M 283.696563 234.207937 
L 303.696563 234.207937 
L 303.696563 227.207937 
L 283.696563 227.207937 
z
" style="fill:#9467bd;"/>
    </g>
    <g id="text_31">
     <!-- SequentialForward -->
     <g transform="translate(311.696563 234.207937)scale(0.1 -0.1)">
      <use xlink:href="#DejaVuSans-83"/>
      <use x="63.476562" xlink:href="#DejaVuSans-101"/>
      <use x="125" xlink:href="#DejaVuSans-113"/>
      <use x="188.476562" xlink:href="#DejaVuSans-117"/>
      <use x="251.855469" xlink:href="#DejaVuSans-101"/>
      <use x="313.378906" xlink:href="#DejaVuSans-110"/>
      <use x="376.757812" xlink:href="#DejaVuSans-116"/>
      <use x="415.966797" xlink:href="#DejaVuSans-105"/>
      <use x="443.75" xlink:href="#DejaVuSans-97"/>
      <use x="505.029297" xlink:href="#DejaVuSans-108"/>
      <use x="532.8125" xlink:href="#DejaVuSans-70"/>
      <use x="590.285156" xlink:href="#DejaVuSans-111"/>
      <use x="651.466797" xlink:href="#DejaVuSans-114"/>
      <use x="692.580078" xlink:href="#DejaVuSans-119"/>
      <use x="774.367188" xlink:href="#DejaVuSans-97"/>
      <use x="835.646484" xlink:href="#DejaVuSans-114"/>
      <use x="876.744141" xlink:href="#DejaVuSans-100"/>
     </g>
    </g>
    <g id="patch_169">
     <path d="M 283.696563 248.886062 
L 303.696563 248.886062 
L 303.696563 241.886062 
L 283.696563 241.886062 
z
" style="fill:#8c564b;"/>
    </g>
    <g id="text_32">
     <!-- SequentialForward -->
     <g transform="translate(311.696563 248.886062)scale(0.1 -0.1)">
      <use xlink:href="#DejaVuSans-83"/>
      <use x="63.476562" xlink:href="#DejaVuSans-101"/>
      <use x="125" xlink:href="#DejaVuSans-113"/>
      <use x="188.476562" xlink:href="#DejaVuSans-117"/>
      <use x="251.855469" xlink:href="#DejaVuSans-101"/>
      <use x="313.378906" xlink:href="#DejaVuSans-110"/>
      <use x="376.757812" xlink:href="#DejaVuSans-116"/>
      <use x="415.966797" xlink:href="#DejaVuSans-105"/>
      <use x="443.75" xlink:href="#DejaVuSans-97"/>
      <use x="505.029297" xlink:href="#DejaVuSans-108"/>
      <use x="532.8125" xlink:href="#DejaVuSans-70"/>
      <use x="590.285156" xlink:href="#DejaVuSans-111"/>
      <use x="651.466797" xlink:href="#DejaVuSans-114"/>
      <use x="692.580078" xlink:href="#DejaVuSans-119"/>
      <use x="774.367188" xlink:href="#DejaVuSans-97"/>
      <use x="835.646484" xlink:href="#DejaVuSans-114"/>
      <use x="876.744141" xlink:href="#DejaVuSans-100"/>
     </g>
    </g>
    <g id="patch_170">
     <path d="M 283.696563 263.564187 
L 303.696563 263.564187 
L 303.696563 256.564187 
L 283.696563 256.564187 
z
" style="fill:#e377c2;"/>
    </g>
    <g id="text_33">
     <!-- SequentialForward -->
     <g transform="translate(311.696563 263.564187)scale(0.1 -0.1)">
      <use xlink:href="#DejaVuSans-83"/>
      <use x="63.476562" xlink:href="#DejaVuSans-101"/>
      <use x="125" xlink:href="#DejaVuSans-113"/>
      <use x="188.476562" xlink:href="#DejaVuSans-117"/>
      <use x="251.855469" xlink:href="#DejaVuSans-101"/>
      <use x="313.378906" xlink:href="#DejaVuSans-110"/>
      <use x="376.757812" xlink:href="#DejaVuSans-116"/>
      <use x="415.966797" xlink:href="#DejaVuSans-105"/>
      <use x="443.75" xlink:href="#DejaVuSans-97"/>
      <use x="505.029297" xlink:href="#DejaVuSans-108"/>
      <use x="532.8125" xlink:href="#DejaVuSans-70"/>
      <use x="590.285156" xlink:href="#DejaVuSans-111"/>
      <use x="651.466797" xlink:href="#DejaVuSans-114"/>
      <use x="692.580078" xlink:href="#DejaVuSans-119"/>
      <use x="774.367188" xlink:href="#DejaVuSans-97"/>
      <use x="835.646484" xlink:href="#DejaVuSans-114"/>
      <use x="876.744141" xlink:href="#DejaVuSans-100"/>
     </g>
    </g>
    <g id="patch_171">
     <path d="M 283.696563 278.242312 
L 303.696563 278.242312 
L 303.696563 271.242312 
L 283.696563 271.242312 
z
" style="fill:#7f7f7f;"/>
    </g>
    <g id="text_34">
     <!-- SequentialForward -->
     <g transform="translate(311.696563 278.242312)scale(0.1 -0.1)">
      <use xlink:href="#DejaVuSans-83"/>
      <use x="63.476562" xlink:href="#DejaVuSans-101"/>
      <use x="125" xlink:href="#DejaVuSans-113"/>
      <use x="188.476562" xlink:href="#DejaVuSans-117"/>
      <use x="251.855469" xlink:href="#DejaVuSans-101"/>
      <use x="313.378906" xlink:href="#DejaVuSans-110"/>
      <use x="376.757812" xlink:href="#DejaVuSans-116"/>
      <use x="415.966797" xlink:href="#DejaVuSans-105"/>
      <use x="443.75" xlink:href="#DejaVuSans-97"/>
      <use x="505.029297" xlink:href="#DejaVuSans-108"/>
      <use x="532.8125" xlink:href="#DejaVuSans-70"/>
      <use x="590.285156" xlink:href="#DejaVuSans-111"/>
      <use x="651.466797" xlink:href="#DejaVuSans-114"/>
      <use x="692.580078" xlink:href="#DejaVuSans-119"/>
      <use x="774.367188" xlink:href="#DejaVuSans-97"/>
      <use x="835.646484" xlink:href="#DejaVuSans-114"/>
      <use x="876.744141" xlink:href="#DejaVuSans-100"/>
     </g>
    </g>
   </g>
  </g>
 </g>
 <defs>
  <clipPath id="pc8859f549d">
   <rect height="266.112" width="357.12" x="57.6" y="41.472"/>
  </clipPath>
 </defs>
</svg>
